<?xml version="1.0" encoding="us-ascii" standalone="no"?><svg xmlns="http://www.w3.org/2000/svg" xmlns:xlink="http://www.w3.org/1999/xlink" contentStyleType="text/css" height="1446px" preserveAspectRatio="none" style="width:2765px;height:1446px;background:#FFFFFF;" version="1.1" viewBox="0 0 2765 1446" width="2765px" zoomAndPan="magnify"><defs/><g><text fill="#000000" font-family="sans-serif" font-size="14" font-weight="bold" lengthAdjust="spacing" textLength="312" x="1219.5" y="24.5332">Jetpack Joyride Java Remake - Class Design</text><!--cluster mainApp--><g id="cluster_mainApp"><rect fill="none" height="1149" rx="2.5" ry="2.5" style="stroke:#000000;stroke-width:1.5;" width="2752" x="7" y="121.1094"/><text fill="#000000" font-family="sans-serif" font-size="14" font-weight="bold" lengthAdjust="spacing" textLength="60" x="1353" y="137.6426">mainApp</text></g><!--class MainApp--><g id="elem_MainApp"><rect codeLine="16" fill="#F1F1F1" height="83.2188" id="MainApp" rx="2.5" ry="2.5" style="stroke:#181818;stroke-width:0.5;" width="183" x="23" y="755.6094"/><ellipse cx="82.75" cy="771.6094" fill="#ADD1B2" rx="11" ry="11" style="stroke:#181818;stroke-width:1.0;"/><path d="M85.5156,767.4844 Q85.6719,767.2656 85.8594,767.1563 Q86.0469,767.0469 86.2656,767.0469 Q86.6406,767.0469 86.875,767.3125 Q87.1094,767.5625 87.1094,768.1719 L87.1094,769.625 Q87.1094,770.2344 86.875,770.5 Q86.6406,770.7656 86.2656,770.7656 Q85.9219,770.7656 85.7188,770.5625 Q85.5156,770.375 85.4063,769.8594 Q85.3594,769.5 85.1719,769.3125 Q84.8438,768.9375 84.2344,768.7188 Q83.625,768.5 83,768.5 Q82.2344,768.5 81.5938,768.8281 Q80.9688,769.1563 80.4688,769.9063 Q79.9844,770.6563 79.9844,771.6875 L79.9844,772.7813 Q79.9844,774.0156 80.875,774.8438 Q81.7656,775.6563 83.3594,775.6563 Q84.2969,775.6563 84.9531,775.4063 Q85.3438,775.25 85.7656,774.8125 Q86.0313,774.5469 86.1719,774.4688 Q86.3281,774.3906 86.5313,774.3906 Q86.8594,774.3906 87.1094,774.6563 Q87.375,774.9063 87.375,775.25 Q87.375,775.5938 87.0313,776 Q86.5313,776.5781 85.7344,776.9063 Q84.6563,777.3594 83.3594,777.3594 Q81.8438,777.3594 80.6406,776.7344 Q79.6563,776.2344 78.9688,775.1719 Q78.2813,774.0938 78.2813,772.8125 L78.2813,771.6563 Q78.2813,770.3281 78.8906,769.1875 Q79.5156,768.0313 80.6094,767.4219 Q81.7031,766.7969 82.9375,766.7969 Q83.6719,766.7969 84.3125,766.9688 Q84.9688,767.125 85.5156,767.4844 Z " fill="#000000"/><text fill="#000000" font-family="sans-serif" font-size="14" lengthAdjust="spacing" textLength="55" x="103.25" y="777.3379">MainApp</text><line style="stroke:#181818;stroke-width:0.5;" x1="24" x2="205" y1="787.6094" y2="787.6094"/><text fill="#000000" font-family="sans-serif" font-size="14" lengthAdjust="spacing" text-decoration="underline" textLength="80" x="29" y="806.1426">+DELAY : int</text><line style="stroke:#181818;stroke-width:0.5;" x1="24" x2="205" y1="813.2188" y2="813.2188"/><text fill="#000000" font-family="sans-serif" font-size="14" lengthAdjust="spacing" textLength="171" x="29" y="831.752">+main(args : String[]) : void</text></g><!--class GameMenu--><g id="elem_GameMenu"><rect codeLine="21" fill="#F1F1F1" height="100.8281" id="GameMenu" rx="2.5" ry="2.5" style="stroke:#181818;stroke-width:0.5;" width="316" x="267" y="826.6094"/><ellipse cx="384.25" cy="842.6094" fill="#ADD1B2" rx="11" ry="11" style="stroke:#181818;stroke-width:1.0;"/><path d="M387.0156,838.4844 Q387.1719,838.2656 387.3594,838.1563 Q387.5469,838.0469 387.7656,838.0469 Q388.1406,838.0469 388.375,838.3125 Q388.6094,838.5625 388.6094,839.1719 L388.6094,840.625 Q388.6094,841.2344 388.375,841.5 Q388.1406,841.7656 387.7656,841.7656 Q387.4219,841.7656 387.2188,841.5625 Q387.0156,841.375 386.9063,840.8594 Q386.8594,840.5 386.6719,840.3125 Q386.3438,839.9375 385.7344,839.7188 Q385.125,839.5 384.5,839.5 Q383.7344,839.5 383.0938,839.8281 Q382.4688,840.1563 381.9688,840.9063 Q381.4844,841.6563 381.4844,842.6875 L381.4844,843.7813 Q381.4844,845.0156 382.375,845.8438 Q383.2656,846.6563 384.8594,846.6563 Q385.7969,846.6563 386.4531,846.4063 Q386.8438,846.25 387.2656,845.8125 Q387.5313,845.5469 387.6719,845.4688 Q387.8281,845.3906 388.0313,845.3906 Q388.3594,845.3906 388.6094,845.6563 Q388.875,845.9063 388.875,846.25 Q388.875,846.5938 388.5313,847 Q388.0313,847.5781 387.2344,847.9063 Q386.1563,848.3594 384.8594,848.3594 Q383.3438,848.3594 382.1406,847.7344 Q381.1563,847.2344 380.4688,846.1719 Q379.7813,845.0938 379.7813,843.8125 L379.7813,842.6563 Q379.7813,841.3281 380.3906,840.1875 Q381.0156,839.0313 382.1094,838.4219 Q383.2031,837.7969 384.4375,837.7969 Q385.1719,837.7969 385.8125,837.9688 Q386.4688,838.125 387.0156,838.4844 Z " fill="#000000"/><text fill="#000000" font-family="sans-serif" font-size="14" lengthAdjust="spacing" textLength="73" x="404.75" y="848.3379">GameMenu</text><line style="stroke:#181818;stroke-width:0.5;" x1="268" x2="582" y1="858.6094" y2="858.6094"/><text fill="#000000" font-family="sans-serif" font-size="14" lengthAdjust="spacing" textLength="100" x="273" y="877.1426">-frame : JFrame</text><text fill="#000000" font-family="sans-serif" font-size="14" lengthAdjust="spacing" textLength="133" x="273" y="894.752">-startButton : JButton</text><text fill="#000000" font-family="sans-serif" font-size="14" lengthAdjust="spacing" textLength="304" x="273" y="912.3613">-difficultySelector : JComboBox&lt;DifficultyPreset&gt;</text><line style="stroke:#181818;stroke-width:0.5;" x1="268" x2="582" y1="919.4375" y2="919.4375"/></g><!--class GameAdvanceListener--><g id="elem_GameAdvanceListener"><rect codeLine="27" fill="#F1F1F1" height="100.8281" id="GameAdvanceListener" rx="2.5" ry="2.5" style="stroke:#181818;stroke-width:0.5;" width="248" x="644" y="994.6094"/><ellipse cx="691.75" cy="1010.6094" fill="#ADD1B2" rx="11" ry="11" style="stroke:#181818;stroke-width:1.0;"/><path d="M694.5156,1006.4844 Q694.6719,1006.2656 694.8594,1006.1563 Q695.0469,1006.0469 695.2656,1006.0469 Q695.6406,1006.0469 695.875,1006.3125 Q696.1094,1006.5625 696.1094,1007.1719 L696.1094,1008.625 Q696.1094,1009.2344 695.875,1009.5 Q695.6406,1009.7656 695.2656,1009.7656 Q694.9219,1009.7656 694.7188,1009.5625 Q694.5156,1009.375 694.4063,1008.8594 Q694.3594,1008.5 694.1719,1008.3125 Q693.8438,1007.9375 693.2344,1007.7188 Q692.625,1007.5 692,1007.5 Q691.2344,1007.5 690.5938,1007.8281 Q689.9688,1008.1563 689.4688,1008.9063 Q688.9844,1009.6563 688.9844,1010.6875 L688.9844,1011.7813 Q688.9844,1013.0156 689.875,1013.8438 Q690.7656,1014.6563 692.3594,1014.6563 Q693.2969,1014.6563 693.9531,1014.4063 Q694.3438,1014.25 694.7656,1013.8125 Q695.0313,1013.5469 695.1719,1013.4688 Q695.3281,1013.3906 695.5313,1013.3906 Q695.8594,1013.3906 696.1094,1013.6563 Q696.375,1013.9063 696.375,1014.25 Q696.375,1014.5938 696.0313,1015 Q695.5313,1015.5781 694.7344,1015.9063 Q693.6563,1016.3594 692.3594,1016.3594 Q690.8438,1016.3594 689.6406,1015.7344 Q688.6563,1015.2344 687.9688,1014.1719 Q687.2813,1013.0938 687.2813,1011.8125 L687.2813,1010.6563 Q687.2813,1009.3281 687.8906,1008.1875 Q688.5156,1007.0313 689.6094,1006.4219 Q690.7031,1005.7969 691.9375,1005.7969 Q692.6719,1005.7969 693.3125,1005.9688 Q693.9688,1006.125 694.5156,1006.4844 Z " fill="#000000"/><text fill="#000000" font-family="sans-serif" font-size="14" lengthAdjust="spacing" textLength="144" x="712.25" y="1016.3379">GameAdvanceListener</text><line style="stroke:#181818;stroke-width:0.5;" x1="645" x2="891" y1="1026.6094" y2="1026.6094"/><text fill="#000000" font-family="sans-serif" font-size="14" lengthAdjust="spacing" textLength="236" x="650" y="1045.1426">-gameComponent : GameComponent</text><line style="stroke:#181818;stroke-width:0.5;" x1="645" x2="891" y1="1052.2188" y2="1052.2188"/><text fill="#000000" font-family="sans-serif" font-size="14" lengthAdjust="spacing" textLength="168" x="650" y="1070.752">+actionPerformed(e) : void</text><text fill="#000000" font-family="sans-serif" font-size="14" lengthAdjust="spacing" textLength="163" x="650" y="1088.3613">+advanceOneTick() : void</text></g><!--class PressListener--><g id="elem_PressListener"><rect codeLine="33" fill="#F1F1F1" height="118.4375" id="PressListener" rx="2.5" ry="2.5" style="stroke:#181818;stroke-width:0.5;" width="248" x="644" y="841.1094"/><ellipse cx="720.25" cy="857.1094" fill="#ADD1B2" rx="11" ry="11" style="stroke:#181818;stroke-width:1.0;"/><path d="M723.0156,852.9844 Q723.1719,852.7656 723.3594,852.6563 Q723.5469,852.5469 723.7656,852.5469 Q724.1406,852.5469 724.375,852.8125 Q724.6094,853.0625 724.6094,853.6719 L724.6094,855.125 Q724.6094,855.7344 724.375,856 Q724.1406,856.2656 723.7656,856.2656 Q723.4219,856.2656 723.2188,856.0625 Q723.0156,855.875 722.9063,855.3594 Q722.8594,855 722.6719,854.8125 Q722.3438,854.4375 721.7344,854.2188 Q721.125,854 720.5,854 Q719.7344,854 719.0938,854.3281 Q718.4688,854.6563 717.9688,855.4063 Q717.4844,856.1563 717.4844,857.1875 L717.4844,858.2813 Q717.4844,859.5156 718.375,860.3438 Q719.2656,861.1563 720.8594,861.1563 Q721.7969,861.1563 722.4531,860.9063 Q722.8438,860.75 723.2656,860.3125 Q723.5313,860.0469 723.6719,859.9688 Q723.8281,859.8906 724.0313,859.8906 Q724.3594,859.8906 724.6094,860.1563 Q724.875,860.4063 724.875,860.75 Q724.875,861.0938 724.5313,861.5 Q724.0313,862.0781 723.2344,862.4063 Q722.1563,862.8594 720.8594,862.8594 Q719.3438,862.8594 718.1406,862.2344 Q717.1563,861.7344 716.4688,860.6719 Q715.7813,859.5938 715.7813,858.3125 L715.7813,857.1563 Q715.7813,855.8281 716.3906,854.6875 Q717.0156,853.5313 718.1094,852.9219 Q719.2031,852.2969 720.4375,852.2969 Q721.1719,852.2969 721.8125,852.4688 Q722.4688,852.625 723.0156,852.9844 Z " fill="#000000"/><text fill="#000000" font-family="sans-serif" font-size="14" lengthAdjust="spacing" textLength="87" x="740.75" y="862.8379">PressListener</text><line style="stroke:#181818;stroke-width:0.5;" x1="645" x2="891" y1="873.1094" y2="873.1094"/><text fill="#000000" font-family="sans-serif" font-size="14" lengthAdjust="spacing" textLength="236" x="650" y="891.6426">-gameComponent : GameComponent</text><line style="stroke:#181818;stroke-width:0.5;" x1="645" x2="891" y1="898.7188" y2="898.7188"/><text fill="#000000" font-family="sans-serif" font-size="14" lengthAdjust="spacing" textLength="126" x="650" y="917.252">+keyTyped(e) : void</text><text fill="#000000" font-family="sans-serif" font-size="14" lengthAdjust="spacing" textLength="138" x="650" y="934.8613">+keyPressed(e) : void</text><text fill="#000000" font-family="sans-serif" font-size="14" lengthAdjust="spacing" textLength="146" x="650" y="952.4707">+keyReleased(e) : void</text></g><!--class GameState--><g id="elem_GameState"><rect codeLine="40" fill="#F1F1F1" height="118.4375" id="GameState" rx="2.5" ry="2.5" style="stroke:#181818;stroke-width:0.5;" width="103" x="1461.5" y="687.1094"/><ellipse cx="1476.5" cy="703.1094" fill="#EB937F" rx="11" ry="11" style="stroke:#181818;stroke-width:1.0;"/><path d="M1475.3594,703.9063 L1475.3594,706.4063 L1479.6875,706.4063 L1479.6875,705.4844 Q1479.6875,704.875 1479.9219,704.6094 Q1480.1719,704.3438 1480.5469,704.3438 Q1480.9219,704.3438 1481.1563,704.6094 Q1481.3906,704.875 1481.3906,705.4844 L1481.3906,708.1094 L1473.3906,708.1094 Q1472.7656,708.1094 1472.5,707.875 Q1472.25,707.6406 1472.25,707.25 Q1472.25,706.875 1472.5156,706.6406 Q1472.7813,706.4063 1473.3906,706.4063 L1473.6563,706.4063 L1473.6563,699.75 L1473.3906,699.75 Q1472.7656,699.75 1472.5,699.5156 Q1472.25,699.2813 1472.25,698.8906 Q1472.25,698.5156 1472.5,698.2813 Q1472.7656,698.0469 1473.3906,698.0469 L1481.0156,698.0469 L1481.0156,700.6406 Q1481.0156,701.25 1480.7813,701.5156 Q1480.5625,701.7656 1480.1719,701.7656 Q1479.7969,701.7656 1479.5625,701.5156 Q1479.3281,701.25 1479.3281,700.6406 L1479.3281,699.75 L1475.3594,699.75 L1475.3594,702.2031 L1476.8438,702.2031 Q1476.8438,701.5469 1476.9688,701.3594 Q1477.2344,700.9531 1477.7031,700.9531 Q1478.0781,700.9531 1478.3125,701.2188 Q1478.5469,701.4688 1478.5469,702.0781 L1478.5469,704.0469 Q1478.5469,704.5938 1478.4219,704.7813 Q1478.1563,705.1719 1477.7031,705.1719 Q1477.2344,705.1719 1476.9688,704.7656 Q1476.8438,704.5781 1476.8438,703.9063 L1475.3594,703.9063 Z " fill="#000000"/><text fill="#000000" font-family="sans-serif" font-size="14" lengthAdjust="spacing" textLength="71" x="1490.5" y="708.8379">GameState</text><line style="stroke:#181818;stroke-width:0.5;" x1="1462.5" x2="1563.5" y1="719.1094" y2="719.1094"/><text fill="#000000" font-family="sans-serif" font-size="14" lengthAdjust="spacing" textLength="60" x="1467.5" y="737.6426">RUNNING</text><text fill="#000000" font-family="sans-serif" font-size="14" lengthAdjust="spacing" textLength="55" x="1467.5" y="755.252">PAUSED</text><text fill="#000000" font-family="sans-serif" font-size="14" lengthAdjust="spacing" textLength="87" x="1467.5" y="772.8613">GAME_OVER</text><text fill="#000000" font-family="sans-serif" font-size="14" lengthAdjust="spacing" textLength="81" x="1467.5" y="790.4707">GAME_WON</text><line style="stroke:#181818;stroke-width:0.5;" x1="1462.5" x2="1563.5" y1="797.5469" y2="797.5469"/></g><!--class DifficultyPreset--><g id="elem_DifficultyPreset"><rect codeLine="47" fill="#F1F1F1" height="153.6563" id="DifficultyPreset" rx="2.5" ry="2.5" style="stroke:#181818;stroke-width:0.5;" width="264" x="2479" y="828.1094"/><ellipse cx="2559.75" cy="844.1094" fill="#EB937F" rx="11" ry="11" style="stroke:#181818;stroke-width:1.0;"/><path d="M2558.6094,844.9063 L2558.6094,847.4063 L2562.9375,847.4063 L2562.9375,846.4844 Q2562.9375,845.875 2563.1719,845.6094 Q2563.4219,845.3438 2563.7969,845.3438 Q2564.1719,845.3438 2564.4063,845.6094 Q2564.6406,845.875 2564.6406,846.4844 L2564.6406,849.1094 L2556.6406,849.1094 Q2556.0156,849.1094 2555.75,848.875 Q2555.5,848.6406 2555.5,848.25 Q2555.5,847.875 2555.7656,847.6406 Q2556.0313,847.4063 2556.6406,847.4063 L2556.9063,847.4063 L2556.9063,840.75 L2556.6406,840.75 Q2556.0156,840.75 2555.75,840.5156 Q2555.5,840.2813 2555.5,839.8906 Q2555.5,839.5156 2555.75,839.2813 Q2556.0156,839.0469 2556.6406,839.0469 L2564.2656,839.0469 L2564.2656,841.6406 Q2564.2656,842.25 2564.0313,842.5156 Q2563.8125,842.7656 2563.4219,842.7656 Q2563.0469,842.7656 2562.8125,842.5156 Q2562.5781,842.25 2562.5781,841.6406 L2562.5781,840.75 L2558.6094,840.75 L2558.6094,843.2031 L2560.0938,843.2031 Q2560.0938,842.5469 2560.2188,842.3594 Q2560.4844,841.9531 2560.9531,841.9531 Q2561.3281,841.9531 2561.5625,842.2188 Q2561.7969,842.4688 2561.7969,843.0781 L2561.7969,845.0469 Q2561.7969,845.5938 2561.6719,845.7813 Q2561.4063,846.1719 2560.9531,846.1719 Q2560.4844,846.1719 2560.2188,845.7656 Q2560.0938,845.5781 2560.0938,844.9063 L2558.6094,844.9063 Z " fill="#000000"/><text fill="#000000" font-family="sans-serif" font-size="14" lengthAdjust="spacing" textLength="94" x="2580.25" y="849.8379">DifficultyPreset</text><line style="stroke:#181818;stroke-width:0.5;" x1="2480" x2="2742" y1="860.1094" y2="860.1094"/><text fill="#000000" font-family="sans-serif" font-size="14" lengthAdjust="spacing" textLength="36" x="2485" y="878.6426">EASY</text><text fill="#000000" font-family="sans-serif" font-size="14" lengthAdjust="spacing" textLength="58" x="2485" y="896.252">NORMAL</text><text fill="#000000" font-family="sans-serif" font-size="14" lengthAdjust="spacing" textLength="38" x="2485" y="913.8613">HARD</text><line style="stroke:#181818;stroke-width:0.5;" x1="2480" x2="2742" y1="920.9375" y2="920.9375"/><text fill="#000000" font-family="sans-serif" font-size="14" lengthAdjust="spacing" textLength="147" x="2485" y="939.4707">+getStartingLives() : int</text><text fill="#000000" font-family="sans-serif" font-size="14" lengthAdjust="spacing" textLength="232" x="2485" y="957.0801">+getMissileSpeedMultiplier() : double</text><text fill="#000000" font-family="sans-serif" font-size="14" lengthAdjust="spacing" textLength="252" x="2485" y="974.6895">+getObstacleDensityMultiplier() : double</text></g><!--class GameComponent--><g id="elem_GameComponent"><rect codeLine="56" fill="#F1F1F1" height="329.75" id="GameComponent" rx="2.5" ry="2.5" style="stroke:#181818;stroke-width:0.5;" width="284" x="953" y="621.1094"/><ellipse cx="1035.25" cy="637.1094" fill="#ADD1B2" rx="11" ry="11" style="stroke:#181818;stroke-width:1.0;"/><path d="M1038.0156,632.9844 Q1038.1719,632.7656 1038.3594,632.6563 Q1038.5469,632.5469 1038.7656,632.5469 Q1039.1406,632.5469 1039.375,632.8125 Q1039.6094,633.0625 1039.6094,633.6719 L1039.6094,635.125 Q1039.6094,635.7344 1039.375,636 Q1039.1406,636.2656 1038.7656,636.2656 Q1038.4219,636.2656 1038.2188,636.0625 Q1038.0156,635.875 1037.9063,635.3594 Q1037.8594,635 1037.6719,634.8125 Q1037.3438,634.4375 1036.7344,634.2188 Q1036.125,634 1035.5,634 Q1034.7344,634 1034.0938,634.3281 Q1033.4688,634.6563 1032.9688,635.4063 Q1032.4844,636.1563 1032.4844,637.1875 L1032.4844,638.2813 Q1032.4844,639.5156 1033.375,640.3438 Q1034.2656,641.1563 1035.8594,641.1563 Q1036.7969,641.1563 1037.4531,640.9063 Q1037.8438,640.75 1038.2656,640.3125 Q1038.5313,640.0469 1038.6719,639.9688 Q1038.8281,639.8906 1039.0313,639.8906 Q1039.3594,639.8906 1039.6094,640.1563 Q1039.875,640.4063 1039.875,640.75 Q1039.875,641.0938 1039.5313,641.5 Q1039.0313,642.0781 1038.2344,642.4063 Q1037.1563,642.8594 1035.8594,642.8594 Q1034.3438,642.8594 1033.1406,642.2344 Q1032.1563,641.7344 1031.4688,640.6719 Q1030.7813,639.5938 1030.7813,638.3125 L1030.7813,637.1563 Q1030.7813,635.8281 1031.3906,634.6875 Q1032.0156,633.5313 1033.1094,632.9219 Q1034.2031,632.2969 1035.4375,632.2969 Q1036.1719,632.2969 1036.8125,632.4688 Q1037.4688,632.625 1038.0156,632.9844 Z " fill="#000000"/><text fill="#000000" font-family="sans-serif" font-size="14" lengthAdjust="spacing" textLength="111" x="1055.75" y="642.8379">GameComponent</text><line style="stroke:#181818;stroke-width:0.5;" x1="954" x2="1236" y1="653.1094" y2="653.1094"/><text fill="#000000" font-family="sans-serif" font-size="14" lengthAdjust="spacing" textLength="76" x="959" y="671.6426">-hero : Hero</text><text fill="#000000" font-family="sans-serif" font-size="14" lengthAdjust="spacing" textLength="228" x="959" y="689.252">-levelConstructor : LevelConstructor</text><text fill="#000000" font-family="sans-serif" font-size="14" lengthAdjust="spacing" textLength="201" x="959" y="706.8613">-scoreManager : ScoreManager</text><text fill="#000000" font-family="sans-serif" font-size="14" lengthAdjust="spacing" textLength="209" x="959" y="724.4707">-soundManager : SoundManager</text><text fill="#000000" font-family="sans-serif" font-size="14" lengthAdjust="spacing" textLength="156" x="959" y="742.0801">-gameState : GameState</text><text fill="#000000" font-family="sans-serif" font-size="14" lengthAdjust="spacing" textLength="162" x="959" y="759.6895">-difficulty : DifficultyPreset</text><text fill="#000000" font-family="sans-serif" font-size="14" lengthAdjust="spacing" textLength="188" x="959" y="777.2988">-proceduralEnabled : boolean</text><text fill="#000000" font-family="sans-serif" font-size="14" lengthAdjust="spacing" textLength="201" x="959" y="794.9082">-objBarriers : ArrayList&lt;Barrier&gt;</text><text fill="#000000" font-family="sans-serif" font-size="14" lengthAdjust="spacing" textLength="173" x="959" y="812.5176">-objCoins : ArrayList&lt;Coin&gt;</text><text fill="#000000" font-family="sans-serif" font-size="14" lengthAdjust="spacing" textLength="199" x="959" y="830.127">-objMissiles : ArrayList&lt;Missile&gt;</text><line style="stroke:#181818;stroke-width:0.5;" x1="954" x2="1236" y1="837.2031" y2="837.2031"/><text fill="#000000" font-family="sans-serif" font-size="14" lengthAdjust="spacing" textLength="148" x="959" y="855.7363">+startNewGame() : void</text><text fill="#000000" font-family="sans-serif" font-size="14" lengthAdjust="spacing" textLength="133" x="959" y="873.3457">+updateState() : void</text><text fill="#000000" font-family="sans-serif" font-size="14" lengthAdjust="spacing" textLength="272" x="959" y="890.9551">+changeLevel(levelData : LevelData) : void</text><text fill="#000000" font-family="sans-serif" font-size="14" lengthAdjust="spacing" textLength="188" x="959" y="908.5645">+advanceToNextLevel() : void</text><text fill="#000000" font-family="sans-serif" font-size="14" lengthAdjust="spacing" textLength="247" x="959" y="926.1738">+restartCurrentLevelAfterDeath() : void</text><text fill="#000000" font-family="sans-serif" font-size="14" lengthAdjust="spacing" textLength="135" x="959" y="943.7832">+togglePause() : void</text></g><!--class LevelConstructor--><g id="elem_LevelConstructor"><rect codeLine="75" fill="#F1F1F1" height="224.0938" id="LevelConstructor" rx="2.5" ry="2.5" style="stroke:#181818;stroke-width:0.5;" width="330" x="1348" y="1030.1094"/><ellipse cx="1454.75" cy="1046.1094" fill="#ADD1B2" rx="11" ry="11" style="stroke:#181818;stroke-width:1.0;"/><path d="M1457.5156,1041.9844 Q1457.6719,1041.7656 1457.8594,1041.6563 Q1458.0469,1041.5469 1458.2656,1041.5469 Q1458.6406,1041.5469 1458.875,1041.8125 Q1459.1094,1042.0625 1459.1094,1042.6719 L1459.1094,1044.125 Q1459.1094,1044.7344 1458.875,1045 Q1458.6406,1045.2656 1458.2656,1045.2656 Q1457.9219,1045.2656 1457.7188,1045.0625 Q1457.5156,1044.875 1457.4063,1044.3594 Q1457.3594,1044 1457.1719,1043.8125 Q1456.8438,1043.4375 1456.2344,1043.2188 Q1455.625,1043 1455,1043 Q1454.2344,1043 1453.5938,1043.3281 Q1452.9688,1043.6563 1452.4688,1044.4063 Q1451.9844,1045.1563 1451.9844,1046.1875 L1451.9844,1047.2813 Q1451.9844,1048.5156 1452.875,1049.3438 Q1453.7656,1050.1563 1455.3594,1050.1563 Q1456.2969,1050.1563 1456.9531,1049.9063 Q1457.3438,1049.75 1457.7656,1049.3125 Q1458.0313,1049.0469 1458.1719,1048.9688 Q1458.3281,1048.8906 1458.5313,1048.8906 Q1458.8594,1048.8906 1459.1094,1049.1563 Q1459.375,1049.4063 1459.375,1049.75 Q1459.375,1050.0938 1459.0313,1050.5 Q1458.5313,1051.0781 1457.7344,1051.4063 Q1456.6563,1051.8594 1455.3594,1051.8594 Q1453.8438,1051.8594 1452.6406,1051.2344 Q1451.6563,1050.7344 1450.9688,1049.6719 Q1450.2813,1048.5938 1450.2813,1047.3125 L1450.2813,1046.1563 Q1450.2813,1044.8281 1450.8906,1043.6875 Q1451.5156,1042.5313 1452.6094,1041.9219 Q1453.7031,1041.2969 1454.9375,1041.2969 Q1455.6719,1041.2969 1456.3125,1041.4688 Q1456.9688,1041.625 1457.5156,1041.9844 Z " fill="#000000"/><text fill="#000000" font-family="sans-serif" font-size="14" lengthAdjust="spacing" textLength="108" x="1475.25" y="1051.8379">LevelConstructor</text><line style="stroke:#181818;stroke-width:0.5;" x1="1349" x2="1677" y1="1062.1094" y2="1062.1094"/><text fill="#000000" font-family="sans-serif" font-size="14" lengthAdjust="spacing" text-decoration="underline" textLength="109" x="1354" y="1080.6426">+MIN_LEVEL : int</text><text fill="#000000" font-family="sans-serif" font-size="14" lengthAdjust="spacing" text-decoration="underline" textLength="193" x="1354" y="1098.252">+CAMPAIGN_MAX_LEVEL : int</text><text fill="#000000" font-family="sans-serif" font-size="14" lengthAdjust="spacing" textLength="198" x="1354" y="1115.8613">-component : GameComponent</text><text fill="#000000" font-family="sans-serif" font-size="14" lengthAdjust="spacing" textLength="134" x="1354" y="1133.4707">-parser : LevelParser</text><text fill="#000000" font-family="sans-serif" font-size="14" lengthAdjust="spacing" textLength="318" x="1354" y="1151.0801">-proceduralGenerator : ProceduralLevelGenerator</text><text fill="#000000" font-family="sans-serif" font-size="14" lengthAdjust="spacing" textLength="89" x="1354" y="1168.6895">-levelNum : int</text><line style="stroke:#181818;stroke-width:0.5;" x1="1349" x2="1677" y1="1175.7656" y2="1175.7656"/><text fill="#000000" font-family="sans-serif" font-size="14" lengthAdjust="spacing" textLength="243" x="1354" y="1194.2988">+changeLevel(levelChange : int) : void</text><text fill="#000000" font-family="sans-serif" font-size="14" lengthAdjust="spacing" textLength="169" x="1354" y="1211.9082">+advanceLevel() : boolean</text><text fill="#000000" font-family="sans-serif" font-size="14" lengthAdjust="spacing" textLength="178" x="1354" y="1229.5176">+reloadCurrentLevel() : void</text><text fill="#000000" font-family="sans-serif" font-size="14" lengthAdjust="spacing" textLength="215" x="1354" y="1247.127">+loadLevel(targetLevel : int) : void</text></g><!--class LevelParser--><g id="elem_LevelParser"><rect codeLine="88" fill="#F1F1F1" height="83.2188" id="LevelParser" rx="2.5" ry="2.5" style="stroke:#181818;stroke-width:0.5;" width="304" x="1964.5" y="1168.6094"/><ellipse cx="2074.25" cy="1184.6094" fill="#ADD1B2" rx="11" ry="11" style="stroke:#181818;stroke-width:1.0;"/><path d="M2077.0156,1180.4844 Q2077.1719,1180.2656 2077.3594,1180.1563 Q2077.5469,1180.0469 2077.7656,1180.0469 Q2078.1406,1180.0469 2078.375,1180.3125 Q2078.6094,1180.5625 2078.6094,1181.1719 L2078.6094,1182.625 Q2078.6094,1183.2344 2078.375,1183.5 Q2078.1406,1183.7656 2077.7656,1183.7656 Q2077.4219,1183.7656 2077.2188,1183.5625 Q2077.0156,1183.375 2076.9063,1182.8594 Q2076.8594,1182.5 2076.6719,1182.3125 Q2076.3438,1181.9375 2075.7344,1181.7188 Q2075.125,1181.5 2074.5,1181.5 Q2073.7344,1181.5 2073.0938,1181.8281 Q2072.4688,1182.1563 2071.9688,1182.9063 Q2071.4844,1183.6563 2071.4844,1184.6875 L2071.4844,1185.7813 Q2071.4844,1187.0156 2072.375,1187.8438 Q2073.2656,1188.6563 2074.8594,1188.6563 Q2075.7969,1188.6563 2076.4531,1188.4063 Q2076.8438,1188.25 2077.2656,1187.8125 Q2077.5313,1187.5469 2077.6719,1187.4688 Q2077.8281,1187.3906 2078.0313,1187.3906 Q2078.3594,1187.3906 2078.6094,1187.6563 Q2078.875,1187.9063 2078.875,1188.25 Q2078.875,1188.5938 2078.5313,1189 Q2078.0313,1189.5781 2077.2344,1189.9063 Q2076.1563,1190.3594 2074.8594,1190.3594 Q2073.3438,1190.3594 2072.1406,1189.7344 Q2071.1563,1189.2344 2070.4688,1188.1719 Q2069.7813,1187.0938 2069.7813,1185.8125 L2069.7813,1184.6563 Q2069.7813,1183.3281 2070.3906,1182.1875 Q2071.0156,1181.0313 2072.1094,1180.4219 Q2073.2031,1179.7969 2074.4375,1179.7969 Q2075.1719,1179.7969 2075.8125,1179.9688 Q2076.4688,1180.125 2077.0156,1180.4844 Z " fill="#000000"/><text fill="#000000" font-family="sans-serif" font-size="14" lengthAdjust="spacing" textLength="76" x="2094.75" y="1190.3379">LevelParser</text><line style="stroke:#181818;stroke-width:0.5;" x1="1965.5" x2="2267.5" y1="1200.6094" y2="1200.6094"/><line style="stroke:#181818;stroke-width:0.5;" x1="1965.5" x2="2267.5" y1="1208.6094" y2="1208.6094"/><text fill="#000000" font-family="sans-serif" font-size="14" lengthAdjust="spacing" textLength="292" x="1970.5" y="1227.1426">+parseFile(inputFileName : String) : LevelData</text><text fill="#000000" font-family="sans-serif" font-size="14" lengthAdjust="spacing" textLength="280" x="1970.5" y="1244.752">+parseLines(lines : List&lt;String&gt;) : LevelData</text></g><!--class LevelData--><g id="elem_LevelData"><rect codeLine="93" fill="#F1F1F1" height="153.6563" id="LevelData" rx="2.5" ry="2.5" style="stroke:#181818;stroke-width:0.5;" width="206" x="2508" y="1017.1094"/><ellipse cx="2574.75" cy="1033.1094" fill="#ADD1B2" rx="11" ry="11" style="stroke:#181818;stroke-width:1.0;"/><path d="M2577.5156,1028.9844 Q2577.6719,1028.7656 2577.8594,1028.6563 Q2578.0469,1028.5469 2578.2656,1028.5469 Q2578.6406,1028.5469 2578.875,1028.8125 Q2579.1094,1029.0625 2579.1094,1029.6719 L2579.1094,1031.125 Q2579.1094,1031.7344 2578.875,1032 Q2578.6406,1032.2656 2578.2656,1032.2656 Q2577.9219,1032.2656 2577.7188,1032.0625 Q2577.5156,1031.875 2577.4063,1031.3594 Q2577.3594,1031 2577.1719,1030.8125 Q2576.8438,1030.4375 2576.2344,1030.2188 Q2575.625,1030 2575,1030 Q2574.2344,1030 2573.5938,1030.3281 Q2572.9688,1030.6563 2572.4688,1031.4063 Q2571.9844,1032.1563 2571.9844,1033.1875 L2571.9844,1034.2813 Q2571.9844,1035.5156 2572.875,1036.3438 Q2573.7656,1037.1563 2575.3594,1037.1563 Q2576.2969,1037.1563 2576.9531,1036.9063 Q2577.3438,1036.75 2577.7656,1036.3125 Q2578.0313,1036.0469 2578.1719,1035.9688 Q2578.3281,1035.8906 2578.5313,1035.8906 Q2578.8594,1035.8906 2579.1094,1036.1563 Q2579.375,1036.4063 2579.375,1036.75 Q2579.375,1037.0938 2579.0313,1037.5 Q2578.5313,1038.0781 2577.7344,1038.4063 Q2576.6563,1038.8594 2575.3594,1038.8594 Q2573.8438,1038.8594 2572.6406,1038.2344 Q2571.6563,1037.7344 2570.9688,1036.6719 Q2570.2813,1035.5938 2570.2813,1034.3125 L2570.2813,1033.1563 Q2570.2813,1031.8281 2570.8906,1030.6875 Q2571.5156,1029.5313 2572.6094,1028.9219 Q2573.7031,1028.2969 2574.9375,1028.2969 Q2575.6719,1028.2969 2576.3125,1028.4688 Q2576.9688,1028.625 2577.5156,1028.9844 Z " fill="#000000"/><text fill="#000000" font-family="sans-serif" font-size="14" lengthAdjust="spacing" textLength="64" x="2595.25" y="1038.8379">LevelData</text><line style="stroke:#181818;stroke-width:0.5;" x1="2509" x2="2713" y1="1049.1094" y2="1049.1094"/><text fill="#000000" font-family="sans-serif" font-size="14" lengthAdjust="spacing" textLength="175" x="2514" y="1067.6426">-barriers : ArrayList&lt;String&gt;</text><text fill="#000000" font-family="sans-serif" font-size="14" lengthAdjust="spacing" textLength="159" x="2514" y="1085.252">-coins : ArrayList&lt;String&gt;</text><text fill="#000000" font-family="sans-serif" font-size="14" lengthAdjust="spacing" textLength="175" x="2514" y="1102.8613">-missiles : ArrayList&lt;String&gt;</text><line style="stroke:#181818;stroke-width:0.5;" x1="2509" x2="2713" y1="1109.9375" y2="1109.9375"/><text fill="#000000" font-family="sans-serif" font-size="14" lengthAdjust="spacing" textLength="194" x="2514" y="1128.4707">+addBarrier(line : String) : void</text><text fill="#000000" font-family="sans-serif" font-size="14" lengthAdjust="spacing" textLength="180" x="2514" y="1146.0801">+addCoin(line : String) : void</text><text fill="#000000" font-family="sans-serif" font-size="14" lengthAdjust="spacing" textLength="193" x="2514" y="1163.6895">+addMissile(line : String) : void</text></g><!--class ProceduralLevelGenerator--><g id="elem_ProceduralLevelGenerator"><rect codeLine="102" fill="#F1F1F1" height="65.6094" id="ProceduralLevelGenerator" rx="2.5" ry="2.5" style="stroke:#181818;stroke-width:0.5;" width="525" x="1854" y="1030.1094"/><ellipse cx="2028.25" cy="1046.1094" fill="#ADD1B2" rx="11" ry="11" style="stroke:#181818;stroke-width:1.0;"/><path d="M2031.0156,1041.9844 Q2031.1719,1041.7656 2031.3594,1041.6563 Q2031.5469,1041.5469 2031.7656,1041.5469 Q2032.1406,1041.5469 2032.375,1041.8125 Q2032.6094,1042.0625 2032.6094,1042.6719 L2032.6094,1044.125 Q2032.6094,1044.7344 2032.375,1045 Q2032.1406,1045.2656 2031.7656,1045.2656 Q2031.4219,1045.2656 2031.2188,1045.0625 Q2031.0156,1044.875 2030.9063,1044.3594 Q2030.8594,1044 2030.6719,1043.8125 Q2030.3438,1043.4375 2029.7344,1043.2188 Q2029.125,1043 2028.5,1043 Q2027.7344,1043 2027.0938,1043.3281 Q2026.4688,1043.6563 2025.9688,1044.4063 Q2025.4844,1045.1563 2025.4844,1046.1875 L2025.4844,1047.2813 Q2025.4844,1048.5156 2026.375,1049.3438 Q2027.2656,1050.1563 2028.8594,1050.1563 Q2029.7969,1050.1563 2030.4531,1049.9063 Q2030.8438,1049.75 2031.2656,1049.3125 Q2031.5313,1049.0469 2031.6719,1048.9688 Q2031.8281,1048.8906 2032.0313,1048.8906 Q2032.3594,1048.8906 2032.6094,1049.1563 Q2032.875,1049.4063 2032.875,1049.75 Q2032.875,1050.0938 2032.5313,1050.5 Q2032.0313,1051.0781 2031.2344,1051.4063 Q2030.1563,1051.8594 2028.8594,1051.8594 Q2027.3438,1051.8594 2026.1406,1051.2344 Q2025.1563,1050.7344 2024.4688,1049.6719 Q2023.7813,1048.5938 2023.7813,1047.3125 L2023.7813,1046.1563 Q2023.7813,1044.8281 2024.3906,1043.6875 Q2025.0156,1042.5313 2026.1094,1041.9219 Q2027.2031,1041.2969 2028.4375,1041.2969 Q2029.1719,1041.2969 2029.8125,1041.4688 Q2030.4688,1041.625 2031.0156,1041.9844 Z " fill="#000000"/><text fill="#000000" font-family="sans-serif" font-size="14" lengthAdjust="spacing" textLength="168" x="2048.75" y="1051.8379">ProceduralLevelGenerator</text><line style="stroke:#181818;stroke-width:0.5;" x1="1855" x2="2378" y1="1062.1094" y2="1062.1094"/><line style="stroke:#181818;stroke-width:0.5;" x1="1855" x2="2378" y1="1070.1094" y2="1070.1094"/><text fill="#000000" font-family="sans-serif" font-size="14" lengthAdjust="spacing" textLength="513" x="1860" y="1088.6426">+generate(level : int, difficulty : DifficultyPreset, width : int, height : int) : LevelData</text></g><!--class InvalidLevels--><g id="elem_InvalidLevels"><rect codeLine="106" fill="#F1F1F1" height="48" id="InvalidLevels" rx="2.5" ry="2.5" style="stroke:#181818;stroke-width:0.5;" width="113" x="2554.5" y="1206.1094"/><ellipse cx="2569.5" cy="1222.1094" fill="#ADD1B2" rx="11" ry="11" style="stroke:#181818;stroke-width:1.0;"/><path d="M2572.2656,1217.9844 Q2572.4219,1217.7656 2572.6094,1217.6563 Q2572.7969,1217.5469 2573.0156,1217.5469 Q2573.3906,1217.5469 2573.625,1217.8125 Q2573.8594,1218.0625 2573.8594,1218.6719 L2573.8594,1220.125 Q2573.8594,1220.7344 2573.625,1221 Q2573.3906,1221.2656 2573.0156,1221.2656 Q2572.6719,1221.2656 2572.4688,1221.0625 Q2572.2656,1220.875 2572.1563,1220.3594 Q2572.1094,1220 2571.9219,1219.8125 Q2571.5938,1219.4375 2570.9844,1219.2188 Q2570.375,1219 2569.75,1219 Q2568.9844,1219 2568.3438,1219.3281 Q2567.7188,1219.6563 2567.2188,1220.4063 Q2566.7344,1221.1563 2566.7344,1222.1875 L2566.7344,1223.2813 Q2566.7344,1224.5156 2567.625,1225.3438 Q2568.5156,1226.1563 2570.1094,1226.1563 Q2571.0469,1226.1563 2571.7031,1225.9063 Q2572.0938,1225.75 2572.5156,1225.3125 Q2572.7813,1225.0469 2572.9219,1224.9688 Q2573.0781,1224.8906 2573.2813,1224.8906 Q2573.6094,1224.8906 2573.8594,1225.1563 Q2574.125,1225.4063 2574.125,1225.75 Q2574.125,1226.0938 2573.7813,1226.5 Q2573.2813,1227.0781 2572.4844,1227.4063 Q2571.4063,1227.8594 2570.1094,1227.8594 Q2568.5938,1227.8594 2567.3906,1227.2344 Q2566.4063,1226.7344 2565.7188,1225.6719 Q2565.0313,1224.5938 2565.0313,1223.3125 L2565.0313,1222.1563 Q2565.0313,1220.8281 2565.6406,1219.6875 Q2566.2656,1218.5313 2567.3594,1217.9219 Q2568.4531,1217.2969 2569.6875,1217.2969 Q2570.4219,1217.2969 2571.0625,1217.4688 Q2571.7188,1217.625 2572.2656,1217.9844 Z " fill="#000000"/><text fill="#000000" font-family="sans-serif" font-size="14" lengthAdjust="spacing" textLength="81" x="2583.5" y="1227.8379">InvalidLevels</text><line style="stroke:#181818;stroke-width:0.5;" x1="2555.5" x2="2666.5" y1="1238.1094" y2="1238.1094"/><line style="stroke:#181818;stroke-width:0.5;" x1="2555.5" x2="2666.5" y1="1246.1094" y2="1246.1094"/></g><!--class ScoreManager--><g id="elem_ScoreManager"><rect codeLine="108" fill="#F1F1F1" height="118.4375" id="ScoreManager" rx="2.5" ry="2.5" style="stroke:#181818;stroke-width:0.5;" width="430" x="1298" y="840.1094"/><ellipse cx="1462.25" cy="856.1094" fill="#ADD1B2" rx="11" ry="11" style="stroke:#181818;stroke-width:1.0;"/><path d="M1465.0156,851.9844 Q1465.1719,851.7656 1465.3594,851.6563 Q1465.5469,851.5469 1465.7656,851.5469 Q1466.1406,851.5469 1466.375,851.8125 Q1466.6094,852.0625 1466.6094,852.6719 L1466.6094,854.125 Q1466.6094,854.7344 1466.375,855 Q1466.1406,855.2656 1465.7656,855.2656 Q1465.4219,855.2656 1465.2188,855.0625 Q1465.0156,854.875 1464.9063,854.3594 Q1464.8594,854 1464.6719,853.8125 Q1464.3438,853.4375 1463.7344,853.2188 Q1463.125,853 1462.5,853 Q1461.7344,853 1461.0938,853.3281 Q1460.4688,853.6563 1459.9688,854.4063 Q1459.4844,855.1563 1459.4844,856.1875 L1459.4844,857.2813 Q1459.4844,858.5156 1460.375,859.3438 Q1461.2656,860.1563 1462.8594,860.1563 Q1463.7969,860.1563 1464.4531,859.9063 Q1464.8438,859.75 1465.2656,859.3125 Q1465.5313,859.0469 1465.6719,858.9688 Q1465.8281,858.8906 1466.0313,858.8906 Q1466.3594,858.8906 1466.6094,859.1563 Q1466.875,859.4063 1466.875,859.75 Q1466.875,860.0938 1466.5313,860.5 Q1466.0313,861.0781 1465.2344,861.4063 Q1464.1563,861.8594 1462.8594,861.8594 Q1461.3438,861.8594 1460.1406,861.2344 Q1459.1563,860.7344 1458.4688,859.6719 Q1457.7813,858.5938 1457.7813,857.3125 L1457.7813,856.1563 Q1457.7813,854.8281 1458.3906,853.6875 Q1459.0156,852.5313 1460.1094,851.9219 Q1461.2031,851.2969 1462.4375,851.2969 Q1463.1719,851.2969 1463.8125,851.4688 Q1464.4688,851.625 1465.0156,851.9844 Z " fill="#000000"/><text fill="#000000" font-family="sans-serif" font-size="14" lengthAdjust="spacing" textLength="93" x="1482.75" y="861.8379">ScoreManager</text><line style="stroke:#181818;stroke-width:0.5;" x1="1299" x2="1727" y1="872.1094" y2="872.1094"/><text fill="#000000" font-family="sans-serif" font-size="14" lengthAdjust="spacing" textLength="96" x="1304" y="890.6426">-bestScore : int</text><line style="stroke:#181818;stroke-width:0.5;" x1="1299" x2="1727" y1="897.7188" y2="897.7188"/><text fill="#000000" font-family="sans-serif" font-size="14" lengthAdjust="spacing" textLength="418" x="1304" y="916.252">+calculateScore(hero : Hero, currentLevel : int, numTicks : int) : int</text><text fill="#000000" font-family="sans-serif" font-size="14" lengthAdjust="spacing" textLength="203" x="1304" y="933.8613">+registerScore(score : int) : void</text><text fill="#000000" font-family="sans-serif" font-size="14" lengthAdjust="spacing" textLength="130" x="1304" y="951.4707">+getBestScore() : int</text></g><!--class SoundManager--><g id="elem_SoundManager"><rect codeLine="115" fill="#F1F1F1" height="136.0469" id="SoundManager" rx="2.5" ry="2.5" style="stroke:#181818;stroke-width:0.5;" width="178" x="1424" y="479.1094"/><ellipse cx="1461.05" cy="495.1094" fill="#ADD1B2" rx="11" ry="11" style="stroke:#181818;stroke-width:1.0;"/><path d="M1463.8156,490.9844 Q1463.9719,490.7656 1464.1594,490.6563 Q1464.3469,490.5469 1464.5656,490.5469 Q1464.9406,490.5469 1465.175,490.8125 Q1465.4094,491.0625 1465.4094,491.6719 L1465.4094,493.125 Q1465.4094,493.7344 1465.175,494 Q1464.9406,494.2656 1464.5656,494.2656 Q1464.2219,494.2656 1464.0188,494.0625 Q1463.8156,493.875 1463.7063,493.3594 Q1463.6594,493 1463.4719,492.8125 Q1463.1438,492.4375 1462.5344,492.2188 Q1461.925,492 1461.3,492 Q1460.5344,492 1459.8938,492.3281 Q1459.2688,492.6563 1458.7688,493.4063 Q1458.2844,494.1563 1458.2844,495.1875 L1458.2844,496.2813 Q1458.2844,497.5156 1459.175,498.3438 Q1460.0656,499.1563 1461.6594,499.1563 Q1462.5969,499.1563 1463.2531,498.9063 Q1463.6438,498.75 1464.0656,498.3125 Q1464.3313,498.0469 1464.4719,497.9688 Q1464.6281,497.8906 1464.8313,497.8906 Q1465.1594,497.8906 1465.4094,498.1563 Q1465.675,498.4063 1465.675,498.75 Q1465.675,499.0938 1465.3313,499.5 Q1464.8313,500.0781 1464.0344,500.4063 Q1462.9563,500.8594 1461.6594,500.8594 Q1460.1438,500.8594 1458.9406,500.2344 Q1457.9563,499.7344 1457.2688,498.6719 Q1456.5813,497.5938 1456.5813,496.3125 L1456.5813,495.1563 Q1456.5813,493.8281 1457.1906,492.6875 Q1457.8156,491.5313 1458.9094,490.9219 Q1460.0031,490.2969 1461.2375,490.2969 Q1461.9719,490.2969 1462.6125,490.4688 Q1463.2688,490.625 1463.8156,490.9844 Z " fill="#000000"/><text fill="#000000" font-family="sans-serif" font-size="14" lengthAdjust="spacing" textLength="97" x="1479.95" y="500.8379">SoundManager</text><line style="stroke:#181818;stroke-width:0.5;" x1="1425" x2="1601" y1="511.1094" y2="511.1094"/><line style="stroke:#181818;stroke-width:0.5;" x1="1425" x2="1601" y1="519.1094" y2="519.1094"/><text fill="#000000" font-family="sans-serif" font-size="14" lengthAdjust="spacing" textLength="111" x="1430" y="537.6426">+playCoin() : void</text><text fill="#000000" font-family="sans-serif" font-size="14" lengthAdjust="spacing" textLength="98" x="1430" y="555.252">+playHit() : void</text><text fill="#000000" font-family="sans-serif" font-size="14" lengthAdjust="spacing" textLength="151" x="1430" y="572.8613">+playGameOver() : void</text><text fill="#000000" font-family="sans-serif" font-size="14" lengthAdjust="spacing" textLength="133" x="1430" y="590.4707">+playLevelUp() : void</text><text fill="#000000" font-family="sans-serif" font-size="14" lengthAdjust="spacing" textLength="166" x="1430" y="608.0801">+playPauseToggle() : void</text></g><!--class GameObject--><g id="elem_GameObject"><rect codeLine="123" fill="#F1F1F1" height="153.6563" id="GameObject" rx="2.5" ry="2.5" style="stroke:#181818;stroke-width:0.5;" width="271" x="959.5" y="255.1094"/><ellipse cx="1051.25" cy="271.1094" fill="#A9DCDF" rx="11" ry="11" style="stroke:#181818;stroke-width:1.0;"/><path d="M1053.4375,272.875 L1049.2969,272.875 L1048.875,273.9063 L1049.2969,273.9063 Q1049.9063,273.9063 1050.1719,274.1406 Q1050.4375,274.375 1050.4375,274.7656 Q1050.4375,275.1406 1050.1719,275.375 Q1049.9063,275.6094 1049.2969,275.6094 L1047,275.6094 Q1046.3906,275.6094 1046.1406,275.375 Q1045.875,275.1406 1045.875,274.75 Q1045.875,274.375 1046.1563,274.1406 Q1046.4219,273.8906 1047.0469,273.9063 L1049.7188,267.25 L1048.6094,267.25 Q1048,267.25 1047.7344,267.0156 Q1047.4688,266.7813 1047.4688,266.3906 Q1047.4688,266.0156 1047.7344,265.7813 Q1048,265.5469 1048.6094,265.5469 L1052.2813,265.5469 L1055.6719,273.9063 Q1056.2656,273.9063 1056.4531,274.0469 Q1056.8438,274.3125 1056.8438,274.7656 Q1056.8438,275.1406 1056.5781,275.375 Q1056.3281,275.6094 1055.7188,275.6094 L1053.4219,275.6094 Q1052.8125,275.6094 1052.5469,275.375 Q1052.2813,275.1406 1052.2813,274.75 Q1052.2813,274.375 1052.5469,274.1406 Q1052.8125,273.9063 1053.4219,273.9063 L1053.8438,273.9063 L1053.4375,272.875 Z M1052.7188,271.1719 L1051.3594,267.7969 L1049.9844,271.1719 L1052.7188,271.1719 Z " fill="#000000"/><text fill="#000000" font-family="sans-serif" font-size="14" font-style="italic" lengthAdjust="spacing" textLength="79" x="1071.75" y="276.8379">GameObject</text><line style="stroke:#181818;stroke-width:0.5;" x1="960.5" x2="1229.5" y1="287.1094" y2="287.1094"/><text fill="#000000" font-family="sans-serif" font-size="14" lengthAdjust="spacing" textLength="239" x="965.5" y="305.6426">#gameComponent : GameComponent</text><text fill="#000000" font-family="sans-serif" font-size="14" lengthAdjust="spacing" textLength="118" x="965.5" y="323.252">#xVelocity : double</text><text fill="#000000" font-family="sans-serif" font-size="14" lengthAdjust="spacing" textLength="119" x="965.5" y="340.8613">#yVelocity : double</text><line style="stroke:#181818;stroke-width:0.5;" x1="960.5" x2="1229.5" y1="347.9375" y2="347.9375"/><text fill="#000000" font-family="sans-serif" font-size="14" lengthAdjust="spacing" textLength="121" x="965.5" y="366.4707">+drawOn(g2) : void</text><text fill="#000000" font-family="sans-serif" font-size="14" lengthAdjust="spacing" textLength="100" x="965.5" y="384.0801">+update() : void</text><text fill="#000000" font-family="sans-serif" font-size="14" lengthAdjust="spacing" textLength="259" x="965.5" y="401.6895">+overlaps(other : GameObject) : boolean</text></g><!--class Hero--><g id="elem_Hero"><rect codeLine="132" fill="#F1F1F1" height="118.4375" id="Hero" rx="2.5" ry="2.5" style="stroke:#181818;stroke-width:0.5;" width="188" x="2022.5" y="692.1094"/><ellipse cx="2097.25" cy="708.1094" fill="#ADD1B2" rx="11" ry="11" style="stroke:#181818;stroke-width:1.0;"/><path d="M2100.0156,703.9844 Q2100.1719,703.7656 2100.3594,703.6563 Q2100.5469,703.5469 2100.7656,703.5469 Q2101.1406,703.5469 2101.375,703.8125 Q2101.6094,704.0625 2101.6094,704.6719 L2101.6094,706.125 Q2101.6094,706.7344 2101.375,707 Q2101.1406,707.2656 2100.7656,707.2656 Q2100.4219,707.2656 2100.2188,707.0625 Q2100.0156,706.875 2099.9063,706.3594 Q2099.8594,706 2099.6719,705.8125 Q2099.3438,705.4375 2098.7344,705.2188 Q2098.125,705 2097.5,705 Q2096.7344,705 2096.0938,705.3281 Q2095.4688,705.6563 2094.9688,706.4063 Q2094.4844,707.1563 2094.4844,708.1875 L2094.4844,709.2813 Q2094.4844,710.5156 2095.375,711.3438 Q2096.2656,712.1563 2097.8594,712.1563 Q2098.7969,712.1563 2099.4531,711.9063 Q2099.8438,711.75 2100.2656,711.3125 Q2100.5313,711.0469 2100.6719,710.9688 Q2100.8281,710.8906 2101.0313,710.8906 Q2101.3594,710.8906 2101.6094,711.1563 Q2101.875,711.4063 2101.875,711.75 Q2101.875,712.0938 2101.5313,712.5 Q2101.0313,713.0781 2100.2344,713.4063 Q2099.1563,713.8594 2097.8594,713.8594 Q2096.3438,713.8594 2095.1406,713.2344 Q2094.1563,712.7344 2093.4688,711.6719 Q2092.7813,710.5938 2092.7813,709.3125 L2092.7813,708.1563 Q2092.7813,706.8281 2093.3906,705.6875 Q2094.0156,704.5313 2095.1094,703.9219 Q2096.2031,703.2969 2097.4375,703.2969 Q2098.1719,703.2969 2098.8125,703.4688 Q2099.4688,703.625 2100.0156,703.9844 Z " fill="#000000"/><text fill="#000000" font-family="sans-serif" font-size="14" lengthAdjust="spacing" textLength="30" x="2117.75" y="713.8379">Hero</text><line style="stroke:#181818;stroke-width:0.5;" x1="2023.5" x2="2209.5" y1="724.1094" y2="724.1094"/><line style="stroke:#181818;stroke-width:0.5;" x1="2023.5" x2="2209.5" y1="732.1094" y2="732.1094"/><text fill="#000000" font-family="sans-serif" font-size="14" lengthAdjust="spacing" textLength="87" x="2028.5" y="750.6426">+flyUp() : void</text><text fill="#000000" font-family="sans-serif" font-size="14" lengthAdjust="spacing" textLength="121" x="2028.5" y="768.252">+stopFlying() : void</text><text fill="#000000" font-family="sans-serif" font-size="14" lengthAdjust="spacing" textLength="75" x="2028.5" y="785.8613">+die() : void</text><text fill="#000000" font-family="sans-serif" font-size="14" lengthAdjust="spacing" textLength="176" x="2028.5" y="803.4707">+resetState(lives : int) : void</text></g><!--class Barrier--><g id="elem_Barrier"><rect codeLine="139" fill="#F1F1F1" height="65.6094" id="Barrier" rx="2.5" ry="2.5" style="stroke:#181818;stroke-width:0.5;" width="205" x="1410.5" y="157.1094"/><ellipse cx="1487.25" cy="173.1094" fill="#ADD1B2" rx="11" ry="11" style="stroke:#181818;stroke-width:1.0;"/><path d="M1490.0156,168.9844 Q1490.1719,168.7656 1490.3594,168.6563 Q1490.5469,168.5469 1490.7656,168.5469 Q1491.1406,168.5469 1491.375,168.8125 Q1491.6094,169.0625 1491.6094,169.6719 L1491.6094,171.125 Q1491.6094,171.7344 1491.375,172 Q1491.1406,172.2656 1490.7656,172.2656 Q1490.4219,172.2656 1490.2188,172.0625 Q1490.0156,171.875 1489.9063,171.3594 Q1489.8594,171 1489.6719,170.8125 Q1489.3438,170.4375 1488.7344,170.2188 Q1488.125,170 1487.5,170 Q1486.7344,170 1486.0938,170.3281 Q1485.4688,170.6563 1484.9688,171.4063 Q1484.4844,172.1563 1484.4844,173.1875 L1484.4844,174.2813 Q1484.4844,175.5156 1485.375,176.3438 Q1486.2656,177.1563 1487.8594,177.1563 Q1488.7969,177.1563 1489.4531,176.9063 Q1489.8438,176.75 1490.2656,176.3125 Q1490.5313,176.0469 1490.6719,175.9688 Q1490.8281,175.8906 1491.0313,175.8906 Q1491.3594,175.8906 1491.6094,176.1563 Q1491.875,176.4063 1491.875,176.75 Q1491.875,177.0938 1491.5313,177.5 Q1491.0313,178.0781 1490.2344,178.4063 Q1489.1563,178.8594 1487.8594,178.8594 Q1486.3438,178.8594 1485.1406,178.2344 Q1484.1563,177.7344 1483.4688,176.6719 Q1482.7813,175.5938 1482.7813,174.3125 L1482.7813,173.1563 Q1482.7813,171.8281 1483.3906,170.6875 Q1484.0156,169.5313 1485.1094,168.9219 Q1486.2031,168.2969 1487.4375,168.2969 Q1488.1719,168.2969 1488.8125,168.4688 Q1489.4688,168.625 1490.0156,168.9844 Z " fill="#000000"/><text fill="#000000" font-family="sans-serif" font-size="14" lengthAdjust="spacing" textLength="43" x="1507.75" y="178.8379">Barrier</text><line style="stroke:#181818;stroke-width:0.5;" x1="1411.5" x2="1614.5" y1="189.1094" y2="189.1094"/><line style="stroke:#181818;stroke-width:0.5;" x1="1411.5" x2="1614.5" y1="197.1094" y2="197.1094"/><text fill="#000000" font-family="sans-serif" font-size="14" lengthAdjust="spacing" textLength="193" x="1416.5" y="215.6426">+getLineObj() : Line2D.Double</text></g><!--class ElectricBarrier--><g id="elem_ElectricBarrier"><rect codeLine="143" fill="#F1F1F1" height="48" id="ElectricBarrier" rx="2.5" ry="2.5" style="stroke:#181818;stroke-width:0.5;" width="121" x="2056" y="240.1094"/><ellipse cx="2071" cy="256.1094" fill="#ADD1B2" rx="11" ry="11" style="stroke:#181818;stroke-width:1.0;"/><path d="M2073.7656,251.9844 Q2073.9219,251.7656 2074.1094,251.6563 Q2074.2969,251.5469 2074.5156,251.5469 Q2074.8906,251.5469 2075.125,251.8125 Q2075.3594,252.0625 2075.3594,252.6719 L2075.3594,254.125 Q2075.3594,254.7344 2075.125,255 Q2074.8906,255.2656 2074.5156,255.2656 Q2074.1719,255.2656 2073.9688,255.0625 Q2073.7656,254.875 2073.6563,254.3594 Q2073.6094,254 2073.4219,253.8125 Q2073.0938,253.4375 2072.4844,253.2188 Q2071.875,253 2071.25,253 Q2070.4844,253 2069.8438,253.3281 Q2069.2188,253.6563 2068.7188,254.4063 Q2068.2344,255.1563 2068.2344,256.1875 L2068.2344,257.2813 Q2068.2344,258.5156 2069.125,259.3438 Q2070.0156,260.1563 2071.6094,260.1563 Q2072.5469,260.1563 2073.2031,259.9063 Q2073.5938,259.75 2074.0156,259.3125 Q2074.2813,259.0469 2074.4219,258.9688 Q2074.5781,258.8906 2074.7813,258.8906 Q2075.1094,258.8906 2075.3594,259.1563 Q2075.625,259.4063 2075.625,259.75 Q2075.625,260.0938 2075.2813,260.5 Q2074.7813,261.0781 2073.9844,261.4063 Q2072.9063,261.8594 2071.6094,261.8594 Q2070.0938,261.8594 2068.8906,261.2344 Q2067.9063,260.7344 2067.2188,259.6719 Q2066.5313,258.5938 2066.5313,257.3125 L2066.5313,256.1563 Q2066.5313,254.8281 2067.1406,253.6875 Q2067.7656,252.5313 2068.8594,251.9219 Q2069.9531,251.2969 2071.1875,251.2969 Q2071.9219,251.2969 2072.5625,251.4688 Q2073.2188,251.625 2073.7656,251.9844 Z " fill="#000000"/><text fill="#000000" font-family="sans-serif" font-size="14" lengthAdjust="spacing" textLength="89" x="2085" y="261.8379">ElectricBarrier</text><line style="stroke:#181818;stroke-width:0.5;" x1="2057" x2="2176" y1="272.1094" y2="272.1094"/><line style="stroke:#181818;stroke-width:0.5;" x1="2057" x2="2176" y1="280.1094" y2="280.1094"/></g><!--class RotatingBarrier--><g id="elem_RotatingBarrier"><rect codeLine="144" fill="#F1F1F1" height="48" id="RotatingBarrier" rx="2.5" ry="2.5" style="stroke:#181818;stroke-width:0.5;" width="128" x="2052.5" y="157.1094"/><ellipse cx="2067.5" cy="173.1094" fill="#ADD1B2" rx="11" ry="11" style="stroke:#181818;stroke-width:1.0;"/><path d="M2070.2656,168.9844 Q2070.4219,168.7656 2070.6094,168.6563 Q2070.7969,168.5469 2071.0156,168.5469 Q2071.3906,168.5469 2071.625,168.8125 Q2071.8594,169.0625 2071.8594,169.6719 L2071.8594,171.125 Q2071.8594,171.7344 2071.625,172 Q2071.3906,172.2656 2071.0156,172.2656 Q2070.6719,172.2656 2070.4688,172.0625 Q2070.2656,171.875 2070.1563,171.3594 Q2070.1094,171 2069.9219,170.8125 Q2069.5938,170.4375 2068.9844,170.2188 Q2068.375,170 2067.75,170 Q2066.9844,170 2066.3438,170.3281 Q2065.7188,170.6563 2065.2188,171.4063 Q2064.7344,172.1563 2064.7344,173.1875 L2064.7344,174.2813 Q2064.7344,175.5156 2065.625,176.3438 Q2066.5156,177.1563 2068.1094,177.1563 Q2069.0469,177.1563 2069.7031,176.9063 Q2070.0938,176.75 2070.5156,176.3125 Q2070.7813,176.0469 2070.9219,175.9688 Q2071.0781,175.8906 2071.2813,175.8906 Q2071.6094,175.8906 2071.8594,176.1563 Q2072.125,176.4063 2072.125,176.75 Q2072.125,177.0938 2071.7813,177.5 Q2071.2813,178.0781 2070.4844,178.4063 Q2069.4063,178.8594 2068.1094,178.8594 Q2066.5938,178.8594 2065.3906,178.2344 Q2064.4063,177.7344 2063.7188,176.6719 Q2063.0313,175.5938 2063.0313,174.3125 L2063.0313,173.1563 Q2063.0313,171.8281 2063.6406,170.6875 Q2064.2656,169.5313 2065.3594,168.9219 Q2066.4531,168.2969 2067.6875,168.2969 Q2068.4219,168.2969 2069.0625,168.4688 Q2069.7188,168.625 2070.2656,168.9844 Z " fill="#000000"/><text fill="#000000" font-family="sans-serif" font-size="14" lengthAdjust="spacing" textLength="96" x="2081.5" y="178.8379">RotatingBarrier</text><line style="stroke:#181818;stroke-width:0.5;" x1="2053.5" x2="2179.5" y1="189.1094" y2="189.1094"/><line style="stroke:#181818;stroke-width:0.5;" x1="2053.5" x2="2179.5" y1="197.1094" y2="197.1094"/></g><!--class Laser--><g id="elem_Laser"><rect codeLine="145" fill="#F1F1F1" height="48" id="Laser" rx="2.5" ry="2.5" style="stroke:#181818;stroke-width:0.5;" width="68" x="2082.5" y="323.1094"/><ellipse cx="2097.5" cy="339.1094" fill="#ADD1B2" rx="11" ry="11" style="stroke:#181818;stroke-width:1.0;"/><path d="M2100.2656,334.9844 Q2100.4219,334.7656 2100.6094,334.6563 Q2100.7969,334.5469 2101.0156,334.5469 Q2101.3906,334.5469 2101.625,334.8125 Q2101.8594,335.0625 2101.8594,335.6719 L2101.8594,337.125 Q2101.8594,337.7344 2101.625,338 Q2101.3906,338.2656 2101.0156,338.2656 Q2100.6719,338.2656 2100.4688,338.0625 Q2100.2656,337.875 2100.1563,337.3594 Q2100.1094,337 2099.9219,336.8125 Q2099.5938,336.4375 2098.9844,336.2188 Q2098.375,336 2097.75,336 Q2096.9844,336 2096.3438,336.3281 Q2095.7188,336.6563 2095.2188,337.4063 Q2094.7344,338.1563 2094.7344,339.1875 L2094.7344,340.2813 Q2094.7344,341.5156 2095.625,342.3438 Q2096.5156,343.1563 2098.1094,343.1563 Q2099.0469,343.1563 2099.7031,342.9063 Q2100.0938,342.75 2100.5156,342.3125 Q2100.7813,342.0469 2100.9219,341.9688 Q2101.0781,341.8906 2101.2813,341.8906 Q2101.6094,341.8906 2101.8594,342.1563 Q2102.125,342.4063 2102.125,342.75 Q2102.125,343.0938 2101.7813,343.5 Q2101.2813,344.0781 2100.4844,344.4063 Q2099.4063,344.8594 2098.1094,344.8594 Q2096.5938,344.8594 2095.3906,344.2344 Q2094.4063,343.7344 2093.7188,342.6719 Q2093.0313,341.5938 2093.0313,340.3125 L2093.0313,339.1563 Q2093.0313,337.8281 2093.6406,336.6875 Q2094.2656,335.5313 2095.3594,334.9219 Q2096.4531,334.2969 2097.6875,334.2969 Q2098.4219,334.2969 2099.0625,334.4688 Q2099.7188,334.625 2100.2656,334.9844 Z " fill="#000000"/><text fill="#000000" font-family="sans-serif" font-size="14" lengthAdjust="spacing" textLength="36" x="2111.5" y="344.8379">Laser</text><line style="stroke:#181818;stroke-width:0.5;" x1="2083.5" x2="2149.5" y1="355.1094" y2="355.1094"/><line style="stroke:#181818;stroke-width:0.5;" x1="2083.5" x2="2149.5" y1="363.1094" y2="363.1094"/></g><!--class Coin--><g id="elem_Coin"><rect codeLine="147" fill="#F1F1F1" height="48" id="Coin" rx="2.5" ry="2.5" style="stroke:#181818;stroke-width:0.5;" width="61" x="1482.5" y="396.1094"/><ellipse cx="1497.5" cy="412.1094" fill="#ADD1B2" rx="11" ry="11" style="stroke:#181818;stroke-width:1.0;"/><path d="M1500.2656,407.9844 Q1500.4219,407.7656 1500.6094,407.6563 Q1500.7969,407.5469 1501.0156,407.5469 Q1501.3906,407.5469 1501.625,407.8125 Q1501.8594,408.0625 1501.8594,408.6719 L1501.8594,410.125 Q1501.8594,410.7344 1501.625,411 Q1501.3906,411.2656 1501.0156,411.2656 Q1500.6719,411.2656 1500.4688,411.0625 Q1500.2656,410.875 1500.1563,410.3594 Q1500.1094,410 1499.9219,409.8125 Q1499.5938,409.4375 1498.9844,409.2188 Q1498.375,409 1497.75,409 Q1496.9844,409 1496.3438,409.3281 Q1495.7188,409.6563 1495.2188,410.4063 Q1494.7344,411.1563 1494.7344,412.1875 L1494.7344,413.2813 Q1494.7344,414.5156 1495.625,415.3438 Q1496.5156,416.1563 1498.1094,416.1563 Q1499.0469,416.1563 1499.7031,415.9063 Q1500.0938,415.75 1500.5156,415.3125 Q1500.7813,415.0469 1500.9219,414.9688 Q1501.0781,414.8906 1501.2813,414.8906 Q1501.6094,414.8906 1501.8594,415.1563 Q1502.125,415.4063 1502.125,415.75 Q1502.125,416.0938 1501.7813,416.5 Q1501.2813,417.0781 1500.4844,417.4063 Q1499.4063,417.8594 1498.1094,417.8594 Q1496.5938,417.8594 1495.3906,417.2344 Q1494.4063,416.7344 1493.7188,415.6719 Q1493.0313,414.5938 1493.0313,413.3125 L1493.0313,412.1563 Q1493.0313,410.8281 1493.6406,409.6875 Q1494.2656,408.5313 1495.3594,407.9219 Q1496.4531,407.2969 1497.6875,407.2969 Q1498.4219,407.2969 1499.0625,407.4688 Q1499.7188,407.625 1500.2656,407.9844 Z " fill="#000000"/><text fill="#000000" font-family="sans-serif" font-size="14" lengthAdjust="spacing" textLength="29" x="1511.5" y="417.8379">Coin</text><line style="stroke:#181818;stroke-width:0.5;" x1="1483.5" x2="1542.5" y1="428.1094" y2="428.1094"/><line style="stroke:#181818;stroke-width:0.5;" x1="1483.5" x2="1542.5" y1="436.1094" y2="436.1094"/></g><!--class Missile--><g id="elem_Missile"><rect codeLine="149" fill="#F1F1F1" height="65.6094" id="Missile" rx="2.5" ry="2.5" style="stroke:#181818;stroke-width:0.5;" width="301" x="1362.5" y="258.1094"/><ellipse cx="1487.75" cy="274.1094" fill="#ADD1B2" rx="11" ry="11" style="stroke:#181818;stroke-width:1.0;"/><path d="M1490.5156,269.9844 Q1490.6719,269.7656 1490.8594,269.6563 Q1491.0469,269.5469 1491.2656,269.5469 Q1491.6406,269.5469 1491.875,269.8125 Q1492.1094,270.0625 1492.1094,270.6719 L1492.1094,272.125 Q1492.1094,272.7344 1491.875,273 Q1491.6406,273.2656 1491.2656,273.2656 Q1490.9219,273.2656 1490.7188,273.0625 Q1490.5156,272.875 1490.4063,272.3594 Q1490.3594,272 1490.1719,271.8125 Q1489.8438,271.4375 1489.2344,271.2188 Q1488.625,271 1488,271 Q1487.2344,271 1486.5938,271.3281 Q1485.9688,271.6563 1485.4688,272.4063 Q1484.9844,273.1563 1484.9844,274.1875 L1484.9844,275.2813 Q1484.9844,276.5156 1485.875,277.3438 Q1486.7656,278.1563 1488.3594,278.1563 Q1489.2969,278.1563 1489.9531,277.9063 Q1490.3438,277.75 1490.7656,277.3125 Q1491.0313,277.0469 1491.1719,276.9688 Q1491.3281,276.8906 1491.5313,276.8906 Q1491.8594,276.8906 1492.1094,277.1563 Q1492.375,277.4063 1492.375,277.75 Q1492.375,278.0938 1492.0313,278.5 Q1491.5313,279.0781 1490.7344,279.4063 Q1489.6563,279.8594 1488.3594,279.8594 Q1486.8438,279.8594 1485.6406,279.2344 Q1484.6563,278.7344 1483.9688,277.6719 Q1483.2813,276.5938 1483.2813,275.3125 L1483.2813,274.1563 Q1483.2813,272.8281 1483.8906,271.6875 Q1484.5156,270.5313 1485.6094,269.9219 Q1486.7031,269.2969 1487.9375,269.2969 Q1488.6719,269.2969 1489.3125,269.4688 Q1489.9688,269.625 1490.5156,269.9844 Z " fill="#000000"/><text fill="#000000" font-family="sans-serif" font-size="14" lengthAdjust="spacing" textLength="42" x="1508.25" y="279.8379">Missile</text><line style="stroke:#181818;stroke-width:0.5;" x1="1363.5" x2="1662.5" y1="290.1094" y2="290.1094"/><line style="stroke:#181818;stroke-width:0.5;" x1="1363.5" x2="1662.5" y1="298.1094" y2="298.1094"/><text fill="#000000" font-family="sans-serif" font-size="14" lengthAdjust="spacing" textLength="289" x="1368.5" y="316.6426">+applyDifficulty(preset : DifficultyPreset) : void</text></g><!--class TrackingMissile--><g id="elem_TrackingMissile"><rect codeLine="152" fill="#F1F1F1" height="48" id="TrackingMissile" rx="2.5" ry="2.5" style="stroke:#181818;stroke-width:0.5;" width="129" x="2052" y="526.1094"/><ellipse cx="2067" cy="542.1094" fill="#ADD1B2" rx="11" ry="11" style="stroke:#181818;stroke-width:1.0;"/><path d="M2069.7656,537.9844 Q2069.9219,537.7656 2070.1094,537.6563 Q2070.2969,537.5469 2070.5156,537.5469 Q2070.8906,537.5469 2071.125,537.8125 Q2071.3594,538.0625 2071.3594,538.6719 L2071.3594,540.125 Q2071.3594,540.7344 2071.125,541 Q2070.8906,541.2656 2070.5156,541.2656 Q2070.1719,541.2656 2069.9688,541.0625 Q2069.7656,540.875 2069.6563,540.3594 Q2069.6094,540 2069.4219,539.8125 Q2069.0938,539.4375 2068.4844,539.2188 Q2067.875,539 2067.25,539 Q2066.4844,539 2065.8438,539.3281 Q2065.2188,539.6563 2064.7188,540.4063 Q2064.2344,541.1563 2064.2344,542.1875 L2064.2344,543.2813 Q2064.2344,544.5156 2065.125,545.3438 Q2066.0156,546.1563 2067.6094,546.1563 Q2068.5469,546.1563 2069.2031,545.9063 Q2069.5938,545.75 2070.0156,545.3125 Q2070.2813,545.0469 2070.4219,544.9688 Q2070.5781,544.8906 2070.7813,544.8906 Q2071.1094,544.8906 2071.3594,545.1563 Q2071.625,545.4063 2071.625,545.75 Q2071.625,546.0938 2071.2813,546.5 Q2070.7813,547.0781 2069.9844,547.4063 Q2068.9063,547.8594 2067.6094,547.8594 Q2066.0938,547.8594 2064.8906,547.2344 Q2063.9063,546.7344 2063.2188,545.6719 Q2062.5313,544.5938 2062.5313,543.3125 L2062.5313,542.1563 Q2062.5313,540.8281 2063.1406,539.6875 Q2063.7656,538.5313 2064.8594,537.9219 Q2065.9531,537.2969 2067.1875,537.2969 Q2067.9219,537.2969 2068.5625,537.4688 Q2069.2188,537.625 2069.7656,537.9844 Z " fill="#000000"/><text fill="#000000" font-family="sans-serif" font-size="14" lengthAdjust="spacing" textLength="97" x="2081" y="547.8379">TrackingMissile</text><line style="stroke:#181818;stroke-width:0.5;" x1="2053" x2="2180" y1="558.1094" y2="558.1094"/><line style="stroke:#181818;stroke-width:0.5;" x1="2053" x2="2180" y1="566.1094" y2="566.1094"/></g><!--class SinMissile--><g id="elem_SinMissile"><rect codeLine="153" fill="#F1F1F1" height="48" id="SinMissile" rx="2.5" ry="2.5" style="stroke:#181818;stroke-width:0.5;" width="94" x="2069.5" y="406.1094"/><ellipse cx="2084.5" cy="422.1094" fill="#ADD1B2" rx="11" ry="11" style="stroke:#181818;stroke-width:1.0;"/><path d="M2087.2656,417.9844 Q2087.4219,417.7656 2087.6094,417.6563 Q2087.7969,417.5469 2088.0156,417.5469 Q2088.3906,417.5469 2088.625,417.8125 Q2088.8594,418.0625 2088.8594,418.6719 L2088.8594,420.125 Q2088.8594,420.7344 2088.625,421 Q2088.3906,421.2656 2088.0156,421.2656 Q2087.6719,421.2656 2087.4688,421.0625 Q2087.2656,420.875 2087.1563,420.3594 Q2087.1094,420 2086.9219,419.8125 Q2086.5938,419.4375 2085.9844,419.2188 Q2085.375,419 2084.75,419 Q2083.9844,419 2083.3438,419.3281 Q2082.7188,419.6563 2082.2188,420.4063 Q2081.7344,421.1563 2081.7344,422.1875 L2081.7344,423.2813 Q2081.7344,424.5156 2082.625,425.3438 Q2083.5156,426.1563 2085.1094,426.1563 Q2086.0469,426.1563 2086.7031,425.9063 Q2087.0938,425.75 2087.5156,425.3125 Q2087.7813,425.0469 2087.9219,424.9688 Q2088.0781,424.8906 2088.2813,424.8906 Q2088.6094,424.8906 2088.8594,425.1563 Q2089.125,425.4063 2089.125,425.75 Q2089.125,426.0938 2088.7813,426.5 Q2088.2813,427.0781 2087.4844,427.4063 Q2086.4063,427.8594 2085.1094,427.8594 Q2083.5938,427.8594 2082.3906,427.2344 Q2081.4063,426.7344 2080.7188,425.6719 Q2080.0313,424.5938 2080.0313,423.3125 L2080.0313,422.1563 Q2080.0313,420.8281 2080.6406,419.6875 Q2081.2656,418.5313 2082.3594,417.9219 Q2083.4531,417.2969 2084.6875,417.2969 Q2085.4219,417.2969 2086.0625,417.4688 Q2086.7188,417.625 2087.2656,417.9844 Z " fill="#000000"/><text fill="#000000" font-family="sans-serif" font-size="14" lengthAdjust="spacing" textLength="62" x="2098.5" y="427.8379">SinMissile</text><line style="stroke:#181818;stroke-width:0.5;" x1="2070.5" x2="2162.5" y1="438.1094" y2="438.1094"/><line style="stroke:#181818;stroke-width:0.5;" x1="2070.5" x2="2162.5" y1="446.1094" y2="446.1094"/></g><!--class RandomMissile--><g id="elem_RandomMissile"><rect codeLine="154" fill="#F1F1F1" height="48" id="RandomMissile" rx="2.5" ry="2.5" style="stroke:#181818;stroke-width:0.5;" width="127" x="2053" y="609.1094"/><ellipse cx="2068" cy="625.1094" fill="#ADD1B2" rx="11" ry="11" style="stroke:#181818;stroke-width:1.0;"/><path d="M2070.7656,620.9844 Q2070.9219,620.7656 2071.1094,620.6563 Q2071.2969,620.5469 2071.5156,620.5469 Q2071.8906,620.5469 2072.125,620.8125 Q2072.3594,621.0625 2072.3594,621.6719 L2072.3594,623.125 Q2072.3594,623.7344 2072.125,624 Q2071.8906,624.2656 2071.5156,624.2656 Q2071.1719,624.2656 2070.9688,624.0625 Q2070.7656,623.875 2070.6563,623.3594 Q2070.6094,623 2070.4219,622.8125 Q2070.0938,622.4375 2069.4844,622.2188 Q2068.875,622 2068.25,622 Q2067.4844,622 2066.8438,622.3281 Q2066.2188,622.6563 2065.7188,623.4063 Q2065.2344,624.1563 2065.2344,625.1875 L2065.2344,626.2813 Q2065.2344,627.5156 2066.125,628.3438 Q2067.0156,629.1563 2068.6094,629.1563 Q2069.5469,629.1563 2070.2031,628.9063 Q2070.5938,628.75 2071.0156,628.3125 Q2071.2813,628.0469 2071.4219,627.9688 Q2071.5781,627.8906 2071.7813,627.8906 Q2072.1094,627.8906 2072.3594,628.1563 Q2072.625,628.4063 2072.625,628.75 Q2072.625,629.0938 2072.2813,629.5 Q2071.7813,630.0781 2070.9844,630.4063 Q2069.9063,630.8594 2068.6094,630.8594 Q2067.0938,630.8594 2065.8906,630.2344 Q2064.9063,629.7344 2064.2188,628.6719 Q2063.5313,627.5938 2063.5313,626.3125 L2063.5313,625.1563 Q2063.5313,623.8281 2064.1406,622.6875 Q2064.7656,621.5313 2065.8594,620.9219 Q2066.9531,620.2969 2068.1875,620.2969 Q2068.9219,620.2969 2069.5625,620.4688 Q2070.2188,620.625 2070.7656,620.9844 Z " fill="#000000"/><text fill="#000000" font-family="sans-serif" font-size="14" lengthAdjust="spacing" textLength="95" x="2082" y="630.8379">RandomMissile</text><line style="stroke:#181818;stroke-width:0.5;" x1="2054" x2="2179" y1="641.1094" y2="641.1094"/><line style="stroke:#181818;stroke-width:0.5;" x1="2054" x2="2179" y1="649.1094" y2="649.1094"/></g><!--class JComponent--><g id="elem_JComponent"><rect codeLine="9" fill="#F1F1F1" height="58.7031" id="JComponent" rx="2.5" ry="2.5" style="stroke:#181818;stroke-width:0.5;" width="111" x="712.5" y="45.6094"/><ellipse cx="727.5" cy="66.9609" fill="#ADD1B2" rx="11" ry="11" style="stroke:#181818;stroke-width:1.0;"/><path d="M730.2656,62.8359 Q730.4219,62.6172 730.6094,62.5078 Q730.7969,62.3984 731.0156,62.3984 Q731.3906,62.3984 731.625,62.6641 Q731.8594,62.9141 731.8594,63.5234 L731.8594,64.9766 Q731.8594,65.5859 731.625,65.8516 Q731.3906,66.1172 731.0156,66.1172 Q730.6719,66.1172 730.4688,65.9141 Q730.2656,65.7266 730.1563,65.2109 Q730.1094,64.8516 729.9219,64.6641 Q729.5938,64.2891 728.9844,64.0703 Q728.375,63.8516 727.75,63.8516 Q726.9844,63.8516 726.3438,64.1797 Q725.7188,64.5078 725.2188,65.2578 Q724.7344,66.0078 724.7344,67.0391 L724.7344,68.1328 Q724.7344,69.3672 725.625,70.1953 Q726.5156,71.0078 728.1094,71.0078 Q729.0469,71.0078 729.7031,70.7578 Q730.0938,70.6016 730.5156,70.1641 Q730.7813,69.8984 730.9219,69.8203 Q731.0781,69.7422 731.2813,69.7422 Q731.6094,69.7422 731.8594,70.0078 Q732.125,70.2578 732.125,70.6016 Q732.125,70.9453 731.7813,71.3516 Q731.2813,71.9297 730.4844,72.2578 Q729.4063,72.7109 728.1094,72.7109 Q726.5938,72.7109 725.3906,72.0859 Q724.4063,71.5859 723.7188,70.5234 Q723.0313,69.4453 723.0313,68.1641 L723.0313,67.0078 Q723.0313,65.6797 723.6406,64.5391 Q724.2656,63.3828 725.3594,62.7734 Q726.4531,62.1484 727.6875,62.1484 Q728.4219,62.1484 729.0625,62.3203 Q729.7188,62.4766 730.2656,62.8359 Z " fill="#000000"/><text fill="#000000" font-family="sans-serif" font-size="12" font-style="italic" lengthAdjust="spacing" textLength="40" x="761" y="63.0664">&#171;Java&#187;</text><text fill="#000000" font-family="sans-serif" font-size="14" lengthAdjust="spacing" textLength="79" x="741.5" y="80.2363">JComponent</text><line style="stroke:#181818;stroke-width:0.5;" x1="713.5" x2="822.5" y1="88.3125" y2="88.3125"/><line style="stroke:#181818;stroke-width:0.5;" x1="713.5" x2="822.5" y1="96.3125" y2="96.3125"/></g><!--class ActionListener--><g id="elem_ActionListener"><rect codeLine="10" fill="#F1F1F1" height="58.7031" id="ActionListener" rx="2.5" ry="2.5" style="stroke:#181818;stroke-width:0.5;" width="122" x="364" y="1286.6094"/><ellipse cx="379" cy="1307.9609" fill="#B4A7E5" rx="11" ry="11" style="stroke:#181818;stroke-width:1.0;"/><path d="M379.9531,1304.6016 L379.9531,1311.2578 L381.6719,1311.2578 Q382.2813,1311.2578 382.5469,1311.4922 Q382.8125,1311.7266 382.8125,1312.1172 Q382.8125,1312.4922 382.5469,1312.7266 Q382.2813,1312.9609 381.6719,1312.9609 L376.5313,1312.9609 Q375.9219,1312.9609 375.6563,1312.7266 Q375.3906,1312.4922 375.3906,1312.1016 Q375.3906,1311.7266 375.6563,1311.4922 Q375.9219,1311.2578 376.5313,1311.2578 L378.25,1311.2578 L378.25,1304.6016 L376.5313,1304.6016 Q375.9219,1304.6016 375.6563,1304.3672 Q375.3906,1304.1328 375.3906,1303.7422 Q375.3906,1303.3672 375.6563,1303.1328 Q375.9219,1302.8984 376.5313,1302.8984 L381.6719,1302.8984 Q382.2813,1302.8984 382.5469,1303.1328 Q382.8125,1303.3672 382.8125,1303.7422 Q382.8125,1304.1328 382.5469,1304.3672 Q382.2813,1304.6016 381.6719,1304.6016 L379.9531,1304.6016 Z " fill="#000000"/><text fill="#000000" font-family="sans-serif" font-size="12" font-style="italic" lengthAdjust="spacing" textLength="40" x="418" y="1304.0664">&#171;Java&#187;</text><text fill="#000000" font-family="sans-serif" font-size="14" font-style="italic" lengthAdjust="spacing" textLength="90" x="393" y="1321.2363">ActionListener</text><line style="stroke:#181818;stroke-width:0.5;" x1="365" x2="485" y1="1329.3125" y2="1329.3125"/><line style="stroke:#181818;stroke-width:0.5;" x1="365" x2="485" y1="1337.3125" y2="1337.3125"/></g><!--class KeyListener--><g id="elem_KeyListener"><rect codeLine="11" fill="#F1F1F1" height="58.7031" id="KeyListener" rx="2.5" ry="2.5" style="stroke:#181818;stroke-width:0.5;" width="107" x="371.5" y="1380.6094"/><ellipse cx="386.5" cy="1401.9609" fill="#B4A7E5" rx="11" ry="11" style="stroke:#181818;stroke-width:1.0;"/><path d="M387.4531,1398.6016 L387.4531,1405.2578 L389.1719,1405.2578 Q389.7813,1405.2578 390.0469,1405.4922 Q390.3125,1405.7266 390.3125,1406.1172 Q390.3125,1406.4922 390.0469,1406.7266 Q389.7813,1406.9609 389.1719,1406.9609 L384.0313,1406.9609 Q383.4219,1406.9609 383.1563,1406.7266 Q382.8906,1406.4922 382.8906,1406.1016 Q382.8906,1405.7266 383.1563,1405.4922 Q383.4219,1405.2578 384.0313,1405.2578 L385.75,1405.2578 L385.75,1398.6016 L384.0313,1398.6016 Q383.4219,1398.6016 383.1563,1398.3672 Q382.8906,1398.1328 382.8906,1397.7422 Q382.8906,1397.3672 383.1563,1397.1328 Q383.4219,1396.8984 384.0313,1396.8984 L389.1719,1396.8984 Q389.7813,1396.8984 390.0469,1397.1328 Q390.3125,1397.3672 390.3125,1397.7422 Q390.3125,1398.1328 390.0469,1398.3672 Q389.7813,1398.6016 389.1719,1398.6016 L387.4531,1398.6016 Z " fill="#000000"/><text fill="#000000" font-family="sans-serif" font-size="12" font-style="italic" lengthAdjust="spacing" textLength="40" x="418" y="1398.0664">&#171;Java&#187;</text><text fill="#000000" font-family="sans-serif" font-size="14" font-style="italic" lengthAdjust="spacing" textLength="75" x="400.5" y="1415.2363">KeyListener</text><line style="stroke:#181818;stroke-width:0.5;" x1="372.5" x2="477.5" y1="1423.3125" y2="1423.3125"/><line style="stroke:#181818;stroke-width:0.5;" x1="372.5" x2="477.5" y1="1431.3125" y2="1431.3125"/></g><!--class Exception--><g id="elem_Exception"><rect codeLine="12" fill="#F1F1F1" height="58.7031" id="Exception" rx="2.5" ry="2.5" style="stroke:#181818;stroke-width:0.5;" width="93" x="2070" y="1364.6094"/><ellipse cx="2085" cy="1385.9609" fill="#ADD1B2" rx="11" ry="11" style="stroke:#181818;stroke-width:1.0;"/><path d="M2087.7656,1381.8359 Q2087.9219,1381.6172 2088.1094,1381.5078 Q2088.2969,1381.3984 2088.5156,1381.3984 Q2088.8906,1381.3984 2089.125,1381.6641 Q2089.3594,1381.9141 2089.3594,1382.5234 L2089.3594,1383.9766 Q2089.3594,1384.5859 2089.125,1384.8516 Q2088.8906,1385.1172 2088.5156,1385.1172 Q2088.1719,1385.1172 2087.9688,1384.9141 Q2087.7656,1384.7266 2087.6563,1384.2109 Q2087.6094,1383.8516 2087.4219,1383.6641 Q2087.0938,1383.2891 2086.4844,1383.0703 Q2085.875,1382.8516 2085.25,1382.8516 Q2084.4844,1382.8516 2083.8438,1383.1797 Q2083.2188,1383.5078 2082.7188,1384.2578 Q2082.2344,1385.0078 2082.2344,1386.0391 L2082.2344,1387.1328 Q2082.2344,1388.3672 2083.125,1389.1953 Q2084.0156,1390.0078 2085.6094,1390.0078 Q2086.5469,1390.0078 2087.2031,1389.7578 Q2087.5938,1389.6016 2088.0156,1389.1641 Q2088.2813,1388.8984 2088.4219,1388.8203 Q2088.5781,1388.7422 2088.7813,1388.7422 Q2089.1094,1388.7422 2089.3594,1389.0078 Q2089.625,1389.2578 2089.625,1389.6016 Q2089.625,1389.9453 2089.2813,1390.3516 Q2088.7813,1390.9297 2087.9844,1391.2578 Q2086.9063,1391.7109 2085.6094,1391.7109 Q2084.0938,1391.7109 2082.8906,1391.0859 Q2081.9063,1390.5859 2081.2188,1389.5234 Q2080.5313,1388.4453 2080.5313,1387.1641 L2080.5313,1386.0078 Q2080.5313,1384.6797 2081.1406,1383.5391 Q2081.7656,1382.3828 2082.8594,1381.7734 Q2083.9531,1381.1484 2085.1875,1381.1484 Q2085.9219,1381.1484 2086.5625,1381.3203 Q2087.2188,1381.4766 2087.7656,1381.8359 Z " fill="#000000"/><text fill="#000000" font-family="sans-serif" font-size="12" font-style="italic" lengthAdjust="spacing" textLength="40" x="2109.5" y="1382.0664">&#171;Java&#187;</text><text fill="#000000" font-family="sans-serif" font-size="14" lengthAdjust="spacing" textLength="61" x="2099" y="1399.2363">Exception</text><line style="stroke:#181818;stroke-width:0.5;" x1="2071" x2="2162" y1="1407.3125" y2="1407.3125"/><line style="stroke:#181818;stroke-width:0.5;" x1="2071" x2="2162" y1="1415.3125" y2="1415.3125"/></g><g id="elem_GMN72"><path d="M1984.5,1286.6094 L1984.5,1329.3125 L2248.5,1329.3125 L2248.5,1296.6094 L2238.5,1286.6094 L1984.5,1286.6094 " fill="#FEFFDD" style="stroke:#181818;stroke-width:0.5;"/><path d="M2238.5,1286.6094 L2238.5,1296.6094 L2248.5,1296.6094 L2238.5,1286.6094 " fill="#FEFFDD" style="stroke:#181818;stroke-width:1.0;"/><text fill="#000000" font-family="sans-serif" font-size="13" lengthAdjust="spacing" textLength="225" x="1990.5" y="1305.1045">Loads campaign levels via LevelParser,</text><text fill="#000000" font-family="sans-serif" font-size="13" lengthAdjust="spacing" textLength="243" x="1990.5" y="1321.4561">and procedural levels after campaign max.</text></g><g id="elem_GMN75"><path d="M1414,1289.6094 L1414,1365.0156 L1612,1365.0156 L1612,1299.6094 L1602,1289.6094 L1414,1289.6094 " fill="#FEFFDD" style="stroke:#181818;stroke-width:0.5;"/><path d="M1602,1289.6094 L1602,1299.6094 L1612,1299.6094 L1602,1289.6094 " fill="#FEFFDD" style="stroke:#181818;stroke-width:1.0;"/><text fill="#000000" font-family="sans-serif" font-size="13" lengthAdjust="spacing" textLength="160" x="1420" y="1308.1045">Central runtime coordinator:</text><text fill="#000000" font-family="sans-serif" font-size="13" lengthAdjust="spacing" textLength="101" x="1420" y="1324.4561">- game loop state</text><text fill="#000000" font-family="sans-serif" font-size="13" lengthAdjust="spacing" textLength="104" x="1420" y="1340.8076">- rendering + HUD</text><text fill="#000000" font-family="sans-serif" font-size="13" lengthAdjust="spacing" textLength="177" x="1420" y="1357.1592">- collision/update orchestration</text></g><!--reverse link JComponent to GameComponent--><g id="link_JComponent_GameComponent"><path codeLine="159" d="M840.2051,99.5053 C864.5951,109.9153 875.04,118.5394 892,141.1094 C969.83,244.6494 915.7,302.0594 953,426.1094 C972.47,490.8694 998.46,560.4194 1022.81,620.9494 " fill="none" id="JComponent-backto-GameComponent" style="stroke:#181818;stroke-width:1.0;"/><polygon fill="none" points="823.65,92.4394,837.8498,105.0237,842.5604,93.987,823.65,92.4394" style="stroke:#181818;stroke-width:1.0;"/></g><!--reverse link ActionListener to GameAdvanceListener--><g id="link_ActionListener_GameAdvanceListener"><path codeLine="160" d="M503.8665,1303.4395 C534.6965,1296.7995 554.11,1289.2494 583,1270.1094 C650.94,1225.0994 706.38,1147.3294 738.06,1096.0494 " fill="none" id="ActionListener-backto-GameAdvanceListener" style="stroke:#181818;stroke-width:1.0;stroke-dasharray:7.0,7.0;"/><polygon fill="none" points="486.27,1307.2294,505.1298,1309.305,502.6032,1297.574,486.27,1307.2294" style="stroke:#181818;stroke-width:1.0;"/></g><!--reverse link KeyListener to PressListener--><g id="link_KeyListener_PressListener"><path codeLine="161" d="M496.7209,1406.0472 C531.4309,1401.8672 557.16,1392.6694 583,1363.1094 C697.31,1232.3394 548.22,1121.9994 644,977.1094 C648.24,970.6994 653.21,964.7194 658.69,959.1694 " fill="none" id="KeyListener-backto-PressListener" style="stroke:#181818;stroke-width:1.0;stroke-dasharray:7.0,7.0;"/><polygon fill="none" points="478.85,1408.1994,497.4383,1412.0042,496.0035,1400.0903,478.85,1408.1994" style="stroke:#181818;stroke-width:1.0;"/></g><!--reverse link Exception to InvalidLevels--><g id="link_Exception_InvalidLevels"><path codeLine="162" d="M2181.2754,1388.002 C2234.2954,1382.262 2305.74,1371.6594 2379,1347.1094 C2449.97,1323.3294 2526.34,1280.9894 2571.06,1254.2894 " fill="none" id="Exception-backto-InvalidLevels" style="stroke:#181818;stroke-width:1.0;"/><polygon fill="none" points="2163.38,1389.9394,2181.9212,1393.9671,2180.6296,1382.0369,2163.38,1389.9394" style="stroke:#181818;stroke-width:1.0;"/></g><!--reverse link GameObject to Hero--><g id="link_GameObject_Hero"><path codeLine="164" d="M1248.8091,339.0657 C1428.5391,347.7257 1708.49,363.3294 1728,378.1094 C1759.27,401.7994 1743.26,424.7594 1758,461.1094 C1797.01,557.3394 1775.72,605.8894 1854,674.1094 C1900.65,714.7694 1967.86,733.9794 2022.46,743.0494 " fill="none" id="GameObject-backto-Hero" style="stroke:#181818;stroke-width:1.0;"/><polygon fill="none" points="1230.83,338.1994,1248.5204,345.0587,1249.0979,333.0726,1230.83,338.1994" style="stroke:#181818;stroke-width:1.0;"/></g><!--reverse link GameObject to Barrier--><g id="link_GameObject_Barrier"><path codeLine="165" d="M1247.1346,259.2555 C1269.3546,249.6955 1275.84,247.6594 1298,240.1094 C1334.02,227.8294 1374.46,217.5294 1410.41,209.5294 " fill="none" id="GameObject-backto-Barrier" style="stroke:#181818;stroke-width:1.0;"/><polygon fill="none" points="1230.6,266.3694,1249.5059,264.767,1244.7633,253.744,1230.6,266.3694" style="stroke:#181818;stroke-width:1.0;"/></g><!--reverse link GameObject to Coin--><g id="link_GameObject_Coin"><path codeLine="166" d="M1248.4571,365.1766 C1260.6771,367.8066 1255.26,366.6194 1267,369.1094 C1344.56,385.5694 1436.05,404.4794 1482.19,413.9794 " fill="none" id="GameObject-backto-Coin" style="stroke:#181818;stroke-width:1.0;"/><polygon fill="none" points="1230.86,361.3894,1247.1946,371.0423,1249.7195,359.3109,1230.86,361.3894" style="stroke:#181818;stroke-width:1.0;"/></g><!--reverse link GameObject to Missile--><g id="link_GameObject_Missile"><path codeLine="167" d="M1248.6932,317.0636 C1290.6932,312.9236 1319.35,310.0994 1362.31,305.8594 " fill="none" id="GameObject-backto-Missile" style="stroke:#181818;stroke-width:1.0;"/><polygon fill="none" points="1230.78,318.8294,1249.2818,323.0347,1248.1046,311.0926,1230.78,318.8294" style="stroke:#181818;stroke-width:1.0;"/></g><!--reverse link Barrier to ElectricBarrier--><g id="link_Barrier_ElectricBarrier"><path codeLine="169" d="M1633.5653,204.8177 C1759.8553,220.3577 1953.28,244.1494 2055.92,256.7794 " fill="none" id="Barrier-backto-ElectricBarrier" style="stroke:#181818;stroke-width:1.0;"/><polygon fill="none" points="1615.7,202.6194,1632.8325,210.7728,1634.298,198.8626,1615.7,202.6194" style="stroke:#181818;stroke-width:1.0;"/></g><!--reverse link Barrier to RotatingBarrier--><g id="link_Barrier_RotatingBarrier"><path codeLine="170" d="M1633.698,188.3197 C1758.478,186.4497 1948.25,183.6094 2052.2,182.0594 " fill="none" id="Barrier-backto-RotatingBarrier" style="stroke:#181818;stroke-width:1.0;"/><polygon fill="none" points="1615.7,188.5894,1633.7879,194.319,1633.6081,182.3203,1615.7,188.5894" style="stroke:#181818;stroke-width:1.0;"/></g><!--reverse link Barrier to Laser--><g id="link_Barrier_Laser"><path codeLine="171" d="M1633.2505,212.3528 C1669.2905,220.2728 1692.2,226.9194 1728,240.1094 C1787.13,261.8894 1794.14,285.4194 1854,305.1094 C1933.28,331.1794 2031.59,341.3994 2082.09,345.1294 " fill="none" id="Barrier-backto-Laser" style="stroke:#181818;stroke-width:1.0;"/><polygon fill="none" points="1615.67,208.4894,1631.9627,218.213,1634.5383,206.4926,1615.67,208.4894" style="stroke:#181818;stroke-width:1.0;"/></g><!--reverse link Missile to TrackingMissile--><g id="link_Missile_TrackingMissile"><path codeLine="173" d="M1680.4327,318.5863 C1704.2127,327.4663 1710.01,333.6394 1728,351.1094 C1760.07,382.2494 1724.08,417.9994 1758,447.1094 C1780.52,466.4294 1798.71,441.5894 1824,457.1094 C1843.55,469.1094 1834.71,486.6994 1854,499.1094 C1913.62,537.4594 1995.57,548.1694 2051.75,550.5894 " fill="none" id="Missile-backto-TrackingMissile" style="stroke:#181818;stroke-width:1.0;"/><polygon fill="none" points="1663.57,312.2894,1678.3337,324.2072,1682.5316,312.9654,1663.57,312.2894" style="stroke:#181818;stroke-width:1.0;"/></g><!--reverse link Missile to SinMissile--><g id="link_Missile_SinMissile"><path codeLine="174" d="M1650.2607,329.0323 C1681.2307,337.7223 1697.22,342.2794 1728,351.1094 C1784.1,367.2094 1797.07,375.2294 1854,388.1094 C1928.67,404.9994 2016.83,417.6894 2069.34,424.4894 " fill="none" id="Missile-backto-SinMissile" style="stroke:#181818;stroke-width:1.0;"/><polygon fill="none" points="1632.93,324.1694,1648.6397,334.8092,1651.8816,323.2554,1632.93,324.1694" style="stroke:#181818;stroke-width:1.0;"/></g><!--reverse link Missile to RandomMissile--><g id="link_Missile_RandomMissile"><path codeLine="175" d="M1680.4394,318.2049 C1704.2894,327.1249 1710.11,333.3994 1728,351.1094 C1761.88,384.6494 1722.12,422.7094 1758,454.1094 C1780.33,473.6494 1802.18,443.9994 1824,464.1094 C1866.65,503.4094 1811.53,551.6194 1854,591.1094 C1907.12,640.4994 1994.07,644.9694 2052.99,641.1194 " fill="none" id="Missile-backto-RandomMissile" style="stroke:#181818;stroke-width:1.0;"/><polygon fill="none" points="1663.58,311.8994,1678.3376,323.8247,1682.5413,312.5851,1663.58,311.8994" style="stroke:#181818;stroke-width:1.0;"/></g><!--link MainApp to GameComponent--><g id="link_MainApp_GameComponent"><path codeLine="178" d="M206.21,795.3194 C355.47,792.4794 662.25,787.0394 922,785.1094 C932,785.0394 936.33,785.0051 946.74,784.9951 " fill="none" id="MainApp-to-GameComponent" style="stroke:#181818;stroke-width:1.0;"/><polygon fill="#181818" points="952.74,784.9894,943.7362,780.998,947.74,784.9942,943.7438,788.998,952.74,784.9894" style="stroke:#181818;stroke-width:1.0;"/></g><!--link MainApp to GameMenu--><g id="link_MainApp_GameMenu"><path codeLine="179" d="M206.39,820.6794 C225.5,825.6294 240.362,829.4935 261.112,834.8735 " fill="none" id="MainApp-to-GameMenu" style="stroke:#181818;stroke-width:1.0;"/><polygon fill="#181818" points="266.92,836.3794,259.212,830.2486,262.08,835.1245,257.2042,837.9925,266.92,836.3794" style="stroke:#181818;stroke-width:1.0;"/></g><!--link GameMenu to GameComponent--><g id="link_GameMenu_GameComponent"><path codeLine="180" d="M583.15,834.9994 C603.52,830.4794 624.18,826.3594 644,823.1094 C746.69,806.2794 857.8897,797.3011 946.9397,792.2211 " fill="none" id="GameMenu-to-GameComponent" style="stroke:#181818;stroke-width:1.0;"/><polygon fill="#181818" points="952.93,791.8794,943.7168,788.3985,947.9381,792.1641,944.1724,796.3855,952.93,791.8794" style="stroke:#181818;stroke-width:1.0;"/></g><!--link GameMenu to GameAdvanceListener--><g id="link_GameMenu_GameAdvanceListener"><path codeLine="181" d="M528.77,927.7394 C571.72,948.8994 616.1277,970.7777 659.0577,991.9277 " fill="none" id="GameMenu-to-GameAdvanceListener" style="stroke:#181818;stroke-width:1.0;"/><polygon fill="#181818" points="664.44,994.5794,658.1344,987.0137,659.9548,992.3697,654.5988,994.1901,664.44,994.5794" style="stroke:#181818;stroke-width:1.0;"/></g><!--link GameMenu to PressListener--><g id="link_GameMenu_PressListener"><path codeLine="182" d="M583.03,887.6994 C603.48,889.0794 618.2035,890.0768 637.9835,891.4068 " fill="none" id="GameMenu-to-PressListener" style="stroke:#181818;stroke-width:1.0;"/><polygon fill="#181818" points="643.97,891.8094,635.2586,887.2146,638.9813,891.4739,634.7219,895.1966,643.97,891.8094" style="stroke:#181818;stroke-width:1.0;"/></g><!--link GameAdvanceListener to GameComponent--><g id="link_GameAdvanceListener_GameComponent"><path codeLine="184" d="M864.8,994.4294 C874.19,988.5594 883.41,982.4094 892,976.1094 C912.48,961.0894 928.5767,948.1428 948.4067,930.7728 " fill="none" id="GameAdvanceListener-to-GameComponent" style="stroke:#181818;stroke-width:1.0;"/><polygon fill="#181818" points="952.92,926.8194,943.5144,929.7406,949.1589,930.1139,948.7856,935.7584,952.92,926.8194" style="stroke:#181818;stroke-width:1.0;"/></g><!--link PressListener to GameComponent--><g id="link_PressListener_GameComponent"><path codeLine="185" d="M892.33,856.8494 C912.08,849.9194 926.9981,844.6851 947.1281,837.6251 " fill="none" id="PressListener-to-GameComponent" style="stroke:#181818;stroke-width:1.0;"/><polygon fill="#181818" points="952.79,835.6394,942.9734,834.8434,948.0718,837.2942,945.621,842.3926,952.79,835.6394" style="stroke:#181818;stroke-width:1.0;"/></g><!--reverse link GameComponent to Hero--><g id="link_GameComponent_Hero"><path codeLine="187" d="M1247.866,687.1218 C1267.656,677.6118 1277.45,674.6294 1298,669.1094 C1553.88,600.3594 1868.83,674.5494 2022.41,720.4394 " fill="none" id="GameComponent-backto-Hero" style="stroke:#181818;stroke-width:1.0;"/><polygon fill="#181818" points="1237.05,692.3194,1244.1905,693.3259,1247.866,687.1218,1240.7255,686.1153,1237.05,692.3194" style="stroke:#181818;stroke-width:1.0;"/></g><!--reverse link GameComponent to LevelConstructor--><g id="link_GameComponent_LevelConstructor"><path codeLine="188" d="M1207.961,960.5407 C1228.551,985.2007 1243.44,999.8694 1267,1020.1094 C1291.48,1041.1394 1319.63,1060.5694 1347.92,1077.5294 " fill="none" id="GameComponent-backto-LevelConstructor" style="stroke:#181818;stroke-width:1.0;"/><polygon fill="#181818" points="1200.27,951.3294,1201.0451,958.4987,1207.961,960.5407,1207.1859,953.3714,1200.27,951.3294" style="stroke:#181818;stroke-width:1.0;"/></g><!--link LevelConstructor to GameComponent--><g id="link_LevelConstructor_GameComponent"><path codeLine="197" d="M1347.92,1043.1294 C1319.63,1025.5694 1291.48,1006.1394 1267,985.1094 C1254.81,974.6394 1247.046,967.5073 1235.526,955.5673 " fill="none" id="LevelConstructor-to-GameComponent" style="stroke:#181818;stroke-width:1.0;"/><polygon fill="#181818" points="1231.36,951.2494,1234.7304,960.5036,1234.8317,954.8476,1240.4876,954.9489,1231.36,951.2494" style="stroke:#181818;stroke-width:1.0;"/></g><!--reverse link GameComponent to ScoreManager--><g id="link_GameComponent_ScoreManager"><path codeLine="189" d="M1248.7108,827.5933 C1268.2708,832.9033 1277.13,835.3094 1297.65,840.8794 " fill="none" id="GameComponent-backto-ScoreManager" style="stroke:#181818;stroke-width:1.0;"/><polygon fill="#181818" points="1237.13,824.4494,1241.8725,829.8816,1248.7108,827.5933,1243.9684,822.161,1237.13,824.4494" style="stroke:#181818;stroke-width:1.0;"/></g><!--reverse link GameComponent to SoundManager--><g id="link_GameComponent_SoundManager"><path codeLine="190" d="M1246.9262,654.5999 C1256.8162,647.7099 1256.98,648.0494 1267,642.1094 C1316.06,613.0394 1375.62,589.7094 1423.73,573.4394 " fill="none" id="GameComponent-backto-SoundManager" style="stroke:#181818;stroke-width:1.0;"/><polygon fill="#181818" points="1237.08,661.4594,1244.2896,661.3117,1246.9262,654.5999,1239.7166,654.7476,1237.08,661.4594" style="stroke:#181818;stroke-width:1.0;"/></g><!--reverse link GameComponent to Barrier--><g id="link_GameComponent_Barrier"><path codeLine="191" d="M1167.3137,609.9106 C1191.4337,548.9306 1213.95,490.2194 1237,426.1094 C1266.43,344.2394 1233.85,298.8794 1298,240.1094 C1328.31,212.3394 1371.02,199.0894 1410.32,193.0494 " fill="none" id="GameComponent-backto-Barrier" style="stroke:#181818;stroke-width:1.0;"/><polygon fill="none" points="1162.9,621.0694,1168.8265,616.9612,1167.3137,609.9106,1161.3873,614.0187,1162.9,621.0694" style="stroke:#181818;stroke-width:1.0;"/><text fill="#000000" font-family="sans-serif" font-size="13" lengthAdjust="spacing" textLength="20" x="1382.3972" y="207.3398">0..*</text></g><!--reverse link GameComponent to Coin--><g id="link_GameComponent_Coin"><path codeLine="192" d="M1169.9056,610.5597 C1202.1556,551.5597 1240.64,500.5194 1298,461.1094 C1354.43,422.3394 1438.04,417.8994 1482.19,418.6194 " fill="none" id="GameComponent-backto-Coin" style="stroke:#181818;stroke-width:1.0;"/><polygon fill="none" points="1164.15,621.0894,1170.5377,617.7431,1169.9056,610.5597,1163.5179,613.906,1164.15,621.0894" style="stroke:#181818;stroke-width:1.0;"/><text fill="#000000" font-family="sans-serif" font-size="13" lengthAdjust="spacing" textLength="20" x="1454.4106" y="433.389">0..*</text></g><!--reverse link GameComponent to Missile--><g id="link_GameComponent_Missile"><path codeLine="193" d="M1150.697,609.7861 C1182.847,527.7161 1227.57,443.5394 1298,378.1094 C1323.27,354.6294 1355.71,337.1094 1387.66,324.1994 " fill="none" id="GameComponent-backto-Missile" style="stroke:#181818;stroke-width:1.0;"/><polygon fill="none" points="1146.32,620.9594,1152.2329,616.8317,1150.697,609.7861,1144.7841,613.9137,1146.32,620.9594" style="stroke:#181818;stroke-width:1.0;"/><text fill="#000000" font-family="sans-serif" font-size="13" lengthAdjust="spacing" textLength="20" x="1342.7067" y="345.3389">0..*</text></g><!--link GameComponent to DifficultyPreset--><g id="link_GameComponent_DifficultyPreset"><path codeLine="194" d="M1237.19,941.1194 C1256.27,954.8294 1276.67,966.6894 1298,975.1094 C1509.96,1058.8094 2184.3867,970.1015 2472.8367,926.7315 " fill="none" id="GameComponent-to-DifficultyPreset" style="stroke:#181818;stroke-width:1.0;"/><polygon fill="#181818" points="2478.77,925.8394,2469.2753,923.222,2473.8256,926.5828,2470.4648,931.1331,2478.77,925.8394" style="stroke:#181818;stroke-width:1.0;"/></g><!--link GameComponent to GameState--><g id="link_GameComponent_GameState"><path codeLine="195" d="M1237.13,772.5394 C1314.65,765.0894 1400.0675,756.8737 1455.4975,751.5437 " fill="none" id="GameComponent-to-GameState" style="stroke:#181818;stroke-width:1.0;"/><polygon fill="#181818" points="1461.47,750.9694,1452.1285,747.8492,1456.493,751.448,1452.8942,755.8125,1461.47,750.9694" style="stroke:#181818;stroke-width:1.0;"/></g><!--reverse link LevelConstructor to LevelParser--><g id="link_LevelConstructor_LevelParser"><path codeLine="198" d="M1690.284,1162.0379 C1779.594,1172.1379 1877.33,1183.1894 1964.48,1193.0394 " fill="none" id="LevelConstructor-backto-LevelParser" style="stroke:#181818;stroke-width:1.0;"/><polygon fill="#181818" points="1678.36,1160.6894,1683.8725,1165.3383,1690.284,1162.0379,1684.7715,1157.3889,1678.36,1160.6894" style="stroke:#181818;stroke-width:1.0;"/></g><!--reverse link LevelConstructor to ProceduralLevelGenerator--><g id="link_LevelConstructor_ProceduralLevelGenerator"><path codeLine="199" d="M1690.258,1118.9582 C1747.568,1111.4382 1801.36,1104.3694 1864.1,1096.1294 " fill="none" id="LevelConstructor-backto-ProceduralLevelGenerator" style="stroke:#181818;stroke-width:1.0;"/><polygon fill="#181818" points="1678.36,1120.5194,1684.8294,1123.7048,1690.258,1118.9582,1683.7886,1115.7728,1678.36,1120.5194" style="stroke:#181818;stroke-width:1.0;"/></g><!--link LevelConstructor to LevelData--><g id="link_LevelConstructor_LevelData"><path codeLine="200" d="M1678.33,1138.9694 C1852.41,1135.0994 2135.24,1127.2094 2379,1113.1094 C2421.18,1110.6694 2461.6418,1107.5406 2501.7518,1104.1106 " fill="none" id="LevelConstructor-to-LevelData" style="stroke:#181818;stroke-width:1.0;"/><polygon fill="#181818" points="2507.73,1103.5994,2498.4219,1100.3808,2502.7482,1104.0254,2499.1035,1108.3517,2507.73,1103.5994" style="stroke:#181818;stroke-width:1.0;"/></g><!--link LevelParser to LevelData--><g id="link_LevelParser_LevelData"><path codeLine="202" d="M2268.65,1181.2594 C2325.43,1169.7394 2390.4,1155.7394 2449,1141.1094 C2468.07,1136.3494 2482.5104,1132.4761 2501.9204,1126.9361 " fill="none" id="LevelParser-to-LevelData" style="stroke:#181818;stroke-width:1.0;"/><polygon fill="#181818" points="2507.69,1125.2894,2497.9378,1123.9131,2502.882,1126.6617,2500.1334,1131.6059,2507.69,1125.2894" style="stroke:#181818;stroke-width:1.0;"/></g><!--link LevelParser to InvalidLevels--><g id="link_LevelParser_InvalidLevels"><path codeLine="203" d="M2268.61,1216.2494 C2365.46,1220.1794 2479.505,1224.8056 2548.375,1227.6056 " fill="none" id="LevelParser-to-InvalidLevels" style="stroke:#181818;stroke-width:1.0;stroke-dasharray:7.0,7.0;"/><polygon fill="#181818" points="2554.37,1227.8494,2545.5399,1223.4871,2549.3741,1227.6463,2545.2149,1231.4805,2554.37,1227.8494" style="stroke:#181818;stroke-width:1.0;"/><text fill="#000000" font-family="sans-serif" font-size="13" lengthAdjust="spacing" textLength="38" x="2410" y="1219.6045">throws</text></g><!--link ProceduralLevelGenerator to LevelData--><g id="link_ProceduralLevelGenerator_LevelData"><path codeLine="204" d="M2379.25,1079.5894 C2424.9,1082.4594 2463.8518,1084.9134 2501.7618,1087.2934 " fill="none" id="ProceduralLevelGenerator-to-LevelData" style="stroke:#181818;stroke-width:1.0;"/><polygon fill="#181818" points="2507.75,1087.6694,2499.0183,1083.1133,2502.7598,1087.3561,2498.5171,1091.0976,2507.75,1087.6694" style="stroke:#181818;stroke-width:1.0;"/></g><!--link ProceduralLevelGenerator to DifficultyPreset--><g id="link_ProceduralLevelGenerator_DifficultyPreset"><path codeLine="205" d="M2359.36,1030.0994 C2390.01,1022.7894 2420.57,1013.9094 2449,1003.1094 C2464.14,997.3594 2474.1478,992.9777 2488.9878,985.1177 " fill="none" id="ProceduralLevelGenerator-to-DifficultyPreset" style="stroke:#181818;stroke-width:1.0;"/><polygon fill="#181818" points="2494.29,982.3094,2484.4645,982.987,2489.8715,984.6496,2488.2089,990.0566,2494.29,982.3094" style="stroke:#181818;stroke-width:1.0;"/></g><!--link ScoreManager to Hero--><g id="link_ScoreManager_Hero"><path codeLine="206" d="M1728.18,846.4094 C1828.94,821.6194 1938.0338,794.7729 2016.3538,775.5029 " fill="none" id="ScoreManager-to-Hero" style="stroke:#181818;stroke-width:1.0;"/><polygon fill="#181818" points="2022.18,774.0694,2012.485,772.3355,2017.3248,775.264,2014.3963,780.1038,2022.18,774.0694" style="stroke:#181818;stroke-width:1.0;"/><text fill="#000000" font-family="sans-serif" font-size="13" lengthAdjust="spacing" textLength="64" x="1759" y="821.6045">score input</text></g><!--link Missile to DifficultyPreset--><g id="link_Missile_DifficultyPreset"><path codeLine="207" d="M1663.53,319.8894 C1686.2,327.8994 1708.5,338.1094 1728,351.1094 C1745.9,363.0394 1743.08,373.5994 1758,389.1094 C1767.73,399.2194 1841.02,465.7894 1854,471.1094 C1962.23,515.4294 2279.73,446.2694 2379,508.1094 C2495.25,580.5194 2557.6739,728.7408 2587.3639,822.2308 " fill="none" id="Missile-to-DifficultyPreset" style="stroke:#181818;stroke-width:1.0;"/><polygon fill="#181818" points="2589.18,827.9494,2590.2683,818.1608,2587.6666,823.1839,2582.6435,820.5822,2589.18,827.9494" style="stroke:#181818;stroke-width:1.0;"/></g><!--link LevelConstructor to GMN72--><g id="link_LevelConstructor_GMN72"><path d="M1678.14,1212.0694 C1733.22,1233.3394 1795.52,1255.0394 1854,1270.1094 C1895.87,1280.8994 1942.36,1288.8894 1984.38,1294.6894 " fill="none" id="LevelConstructor-GMN72" style="stroke:#181818;stroke-width:1.0;stroke-dasharray:7.0,7.0;"/></g><!--link GameComponent to GMN75--><g id="link_GameComponent_GMN75"><path d="M1125.91,951.1794 C1153.36,1056.6694 1204.56,1188.5094 1298,1270.1094 C1329.93,1297.9894 1374.05,1312.4294 1413.93,1319.8294 " fill="none" id="GameComponent-GMN75" style="stroke:#181818;stroke-width:1.0;stroke-dasharray:7.0,7.0;"/></g><!--SRC=[bLXPRziu47xNho2QXxfDx1Pz3880YktcM5-ma-uMYqL1IxJCHYO5YdRYRVlVTuRKGKfAYds9gPdXpF2RWyEy9NTCPpHw97Vog7ZCo1qzKB9aE_h8I9ziURBjf-p0KXAbDCz9p7AUY23GNAViDvk7PiUes94_Sf5HHNTMKwYrukkzPhUH52l-BoCV7H7KIXEsqaUmebYagKXI5gHieucMH85RciGSELo2SklStL3kCYcOqEJY0dsvl0ouq4njQCH8Q6GdFDTCCDKbyGSxjjbMzVWvOXdkhnb1uIJPKIx2B2C_IZ-c5O6Gqn-vfff7lyXeF0c_adC2zf2EktfK9JcGLe25IFx-vnsi3vB7mQzIrJNTiIaJUwEhlm5i6CZSVSO5Ka2vqbTxhS4peDiLCcA-sV1ed-hZYgK0arJ81u3Myae-NumgzaAndEbBtsGO7wY8M8M6iPu0eqRut0XMttWaQX1U09fIxLZSOzLva6bLpWMxvz5ZhtrKT2J_dnOVsV7-c3LD0TKeww0l0GpgCy0107XdbAyWLipONZxCPhUpQrWjmeVLU0IBwt0w_ZR_CbwMwp_disft4r2ZP1okliBFRBwSXXDOt8HBL7IQCBt2m47G9_p0SeD6aHV0c_8yvobRPOp5Kr39ivGpPOHYkL-dh92Rho7yKSf6JEHS7xj5lRZMO1fyjqn9aBo17_mqXJwK8jTgNsJCf44oEHT9nQPKGEwZoChvD6ov5x73TZxBc5gOpsl8_Om5JXDE5CYKZ5YyLpGT2mf7Yq5kBIK4r6IyN7-_eah1yR6aGgMegUQBWdXPo0mb5xu0Kafk0RqlK11HvjGKt8mzeUizDxdsMGm7CQVnwD4MUXSpEFOCm2EgQOaihZkAv5xEsBEsUrmsG87cXtkb88Q67swWUuqOrLjFKii46kQ2xdFMKMhDg3OwrVHszcqo_ZAUr5bPyORXT17UNi- -JSE_6aBzw9LIxKDZprcLKWlpvKVr6WkVshnRL5GZNh6gD9r1pLNUjJ0U6e8LwC2tHhRE7m0tbJHsiVKGHQQbGWYW-CowOS47s9xHOcjE_ncIg0TNt5xZQcPxkUtzxzoCg3PCk83caE9Vv6CkMl5BNzwtQnBCrFUwgnuA3JPWpLfmcBkkKgZvW6LSb9Rnq3jAZNUCrVMgG55TByWurqDtHbXy4_l9RFXjMCx8gotbZ3pnM6zBsIqpGqKLq0vqRyM1fjncGLuItVPNe0vLQgXEWj8KB6D_G7hFwRjd978ohdG6RXIy9VFQdKAHOWdUaChgoMihBgYGdLUb3zNLKft2RSX5SgRqQCBaAa7Y3TSj6XRs_53SCIx37E0XQz5D4xet_SXhHHHkBmKZ0wclf_dwEumgngcJtztz9yzVe60ZRc9RNOidnoxgQQpeqrpqaa_jZktvA-5WAStodjHRqwnghznkKM694RGORj9Zu-ovbjddz0Z9x95ZpfeztKm3cBiu2xpKKefQAzDTOsy0pumkN7yQ3KQD6t-CWv_YKR6re2ubjdAH-DG9nNvSV60oLCEiBKzhbsPPUgmBgPVPMQTTN8x_LiqzX1h6-wHGL-OY5pvXIKKiToKDZ_8MoWvYmJKsRlA1rECwtsKfsq4sKFC8SAV_d_r-8s6Qq__FmQ1hqWsyDm0AUMDfuBm3q4QZ8pWvRDXci6eIIzoRT0DwarWXKORVK9k1zPZD-7hC8inbK0sj6HgFwKJ8epS2zHRSXrPa9W2OHG6W3n1EA4GJcpmedqJz_cKZC4qEldQ2wjdJbc-ncX7q1Fpe1LrlcxO9_oNIvWV-AFtUZRHFRetFRH5lVEvWk-EppvR0VlDnC7Z_nikfJe4gkJgvPHXz0JnuQmvlYzH3VD2QAzlOjKGgc8gHi5FWnN6mqs9zTGVk8EQpNCvWSEcNCdGllLNoAGzU73jyRQ-AjK3qPWQKkB43WRtFpOHOLLkdWa18U43PVuF8JJlD9Z2ivYIYkupoH93K7kh0gGlrMG0rJEhvknIZ-AIeD-_eym3Uk351cqtBVd27y0SLgRtGV8VjGAgO2mJYFEWJlD99AcL6SfClVGA3JynmtYEdvEPX19H8fYdFiN_Owvb85MqPJWgcoLT-_0S0]--></g></svg>